<?xml version="1.0" encoding="UTF-8"?>
<svg version="1.1" xmlns="http://www.w3.org/2000/svg" width="1992" height="528">
<path d="M0 0 C657.36 0 1314.72 0 1992 0 C1992 174.24 1992 348.48 1992 528 C1334.64 528 677.28 528 0 528 C0 353.76 0 179.52 0 0 Z " fill="#FCFDFE" transform="translate(0,0)"/>
<path d="M0 0 C657.36 0 1314.72 0 1992 0 C1992 174.24 1992 348.48 1992 528 C1334.64 528 677.28 528 0 528 C0 353.76 0 179.52 0 0 Z M63 35 C63 128.72 63 222.44 63 319 C681.75 319 1300.5 319 1938 319 C1938 225.28 1938 131.56 1938 35 C1319.25 35 700.5 35 63 35 Z " fill="#FDFEFE" transform="translate(0,0)"/>
<path d="M0 0 C298.32 0 596.64 0 904 0 C904 75.57 904 151.14 904 229 C605.68 229 307.36 229 0 229 C0 153.43 0 77.86 0 0 Z " fill="#1C4C96" transform="translate(93,63)"/>
<path d="M0 0 C91.6322213 -0.10065391 91.6322213 -0.10065391 119.98629761 -0.12825012 C121.50313899 -0.12973012 121.50313899 -0.12973012 123.05062363 -0.13124003 C157.09584863 -0.16436873 191.14107531 -0.19062076 225.18630981 -0.2117157 C226.29751745 -0.21240598 227.40872508 -0.21309627 228.55360567 -0.21380747 C252.70400904 -0.22877253 276.85441293 -0.24262337 301.0048176 -0.25532665 C312.84842669 -0.26156325 324.69203564 -0.26804603 336.53564453 -0.2746582 C337.7142166 -0.275312 338.89278866 -0.27596579 340.10707503 -0.2766394 C378.29770826 -0.29794044 416.48830446 -0.33549275 454.67891527 -0.3814861 C493.92962421 -0.42867021 533.18031266 -0.45943213 572.43104949 -0.46957495 C577.97684112 -0.47101569 583.52263268 -0.47264388 589.06842422 -0.47438622 C590.70563712 -0.47489189 590.70563712 -0.47489189 592.37592503 -0.47540778 C609.93508807 -0.48131292 627.49418771 -0.50449394 645.05332491 -0.53416017 C662.71259971 -0.563626 680.37181176 -0.57483248 698.03111027 -0.56750689 C708.51868455 -0.56370835 719.00602885 -0.57380359 729.49356154 -0.60398772 C736.50724489 -0.62279174 743.52077832 -0.62328014 750.53447218 -0.60915907 C754.52573877 -0.60163918 758.51657167 -0.60181317 762.50779103 -0.62441591 C788.32326945 -0.76194555 810.57093178 1.57640106 831 19 C831.82371094 19.62261719 832.64742187 20.24523437 833.49609375 20.88671875 C844.04336682 29.78855141 850.89728056 44.47037412 852.3203125 58.05859375 C852.88336703 73.39244549 847.69790373 87.57215061 837.8125 99.1875 C822.80419961 114.99624308 801.77084362 123.82005405 780.11485159 124.5514847 C774.49245293 124.64017029 768.8739036 124.61200412 763.2512207 124.56762695 C760.71643095 124.56621349 758.18163916 124.56701426 755.64685059 124.56983948 C750.2296691 124.57096996 744.81287788 124.55699419 739.39577675 124.52865028 C731.56402812 124.48769929 723.73242438 124.47496112 715.90058031 124.46871033 C703.18843835 124.45781615 690.47645846 124.42467574 677.7644043 124.37719727 C665.42912598 124.33117445 653.09389197 124.29584517 640.75854492 124.2746582 C639.9958788 124.27334459 639.23321269 124.27203097 638.44743548 124.27067754 C634.62067149 124.2641515 630.7939072 124.25783316 626.9671427 124.25161803 C595.31130588 124.1999372 563.65568728 124.11061283 532 124 C532 135.88 532 147.76 532 160 C522.1 160 512.2 160 502 160 C502 115.78 502 71.56 502 26 C449.53 26 397.06 26 343 26 C345.31 29.3 347.62 32.6 350 36 C351.7421875 39.2421875 351.7421875 39.2421875 352.875 41.875 C353.26429688 42.75929687 353.65359375 43.64359375 354.0546875 44.5546875 C357.13289846 52.51733237 356 57.05285413 356 67 C393.29 67 430.58 67 469 67 C469 75.58 469 84.16 469 93 C465.32109619 92.9779248 461.64219238 92.95584961 457.85180664 92.93310547 C445.68596808 92.86740375 433.52065031 92.85622961 421.35468388 92.87302971 C413.97950524 92.88188701 406.60523391 92.87222236 399.23022461 92.81835938 C392.79912078 92.7714378 386.36907071 92.75987471 379.93784994 92.7900821 C376.53469908 92.80484996 373.13359939 92.80238035 369.73066902 92.75750351 C365.92300462 92.71619677 362.12036102 92.73739729 358.31274414 92.77294922 C357.19496078 92.7463472 356.07717743 92.71974518 354.92552185 92.69233704 C350.13297356 92.79374578 347.16296526 93.03286448 343.40148735 96.16095352 C341.01261892 98.75692952 341.01261892 98.75692952 338.98754025 101.44670296 C329.0827263 114.17093947 309.91113766 121.65015872 294.29171753 123.79626465 C289.01513359 124.26535679 283.70276971 124.11943253 278.41015625 124.09765625 C276.46066322 124.09553383 276.46066322 124.09553383 274.4717865 124.09336853 C271.03756747 124.08957334 267.60339158 124.07976908 264.16918945 124.06866455 C260.65641869 124.05838555 257.14364088 124.05385708 253.63085938 124.04882812 C246.75388867 124.03814376 239.87694641 124.02110388 233 124 C233 127.3 233 130.6 233 134 C316.82 134 400.64 134 487 134 C487 142.58 487 151.16 487 160 C393.61 160 300.22 160 204 160 C204 148.12 204 136.24 204 124 C146.58 124 89.16 124 30 124 C30 135.88 30 147.76 30 160 C20.1 160 10.2 160 0 160 C0 107.2 0 54.4 0 0 Z " fill="#FCFEFE" transform="translate(126,97)"/>
<path d="M0 0 C618.75 0 1237.5 0 1875 0 C1875 93.72 1875 187.44 1875 284 C1256.25 284 637.5 284 0 284 C0 190.28 0 96.56 0 0 Z M12 12 C12 97.8 12 183.6 12 272 C622.83 272 1233.66 272 1863 272 C1863 186.2 1863 100.4 1863 12 C1252.17 12 641.34 12 12 12 Z " fill="#182F4E" transform="translate(63,35)"/>
<path d="M0 0 C657.36 0 1314.72 0 1992 0 C1992 174.24 1992 348.48 1992 528 C1334.64 528 677.28 528 0 528 C0 353.76 0 179.52 0 0 Z M17 5 C17 173.96 17 342.92 17 517 C665.78 517 1314.56 517 1983 517 C1983 348.04 1983 179.08 1983 5 C1334.22 5 685.44 5 17 5 Z " fill="#182F4F" transform="translate(0,0)"/>
<path d="M0 0 C12.1273844 -0.0465575 24.25474717 -0.08198734 36.3822031 -0.10362434 C42.01484419 -0.11401453 47.64742366 -0.12808564 53.2800293 -0.15087891 C58.7265425 -0.17277853 64.17299683 -0.18460436 69.6195507 -0.18975449 C71.68652204 -0.19341975 73.75349055 -0.20057607 75.82043648 -0.21146011 C96.43798854 -0.31560488 119.20726831 -0.38605191 135 15 C135.55945312 15.54398438 136.11890625 16.08796875 136.6953125 16.6484375 C145.95489812 26.55945125 147.47643469 37.19769476 147.27734375 50.1484375 C146.77794052 62.98384597 140.41417139 73.30494678 131.3671875 82.0703125 C126.96111011 85.66206535 122.00240894 88.33204857 117 91 C118.051875 91.51046875 118.051875 91.51046875 119.125 92.03125 C128.76199334 96.9544966 136.04408654 102.69895803 140 113 C140.35835937 113.88816406 140.71671875 114.77632813 141.0859375 115.69140625 C142.22553362 119.81635458 142.30191314 123.55562228 142.25 127.8125 C142.24250732 128.6163916 142.23501465 129.4202832 142.22729492 130.24853516 C142.12763261 135.73051909 141.8257409 140.79042519 140 146 C139.68160156 146.93972656 139.36320312 147.87945312 139.03515625 148.84765625 C133.36185825 163.95734889 122.23131014 174.79501639 107.67578125 181.46484375 C101.9284703 183.86515534 96.11111023 185.7855998 90 187 C89.1625827 187.16867081 88.32516541 187.33734161 87.46237183 187.51112366 C75.08283891 189.62598548 62.65118596 189.25076944 50.1328125 189.1953125 C47.64175531 189.19157605 45.15069664 189.18873207 42.65963745 189.18673706 C36.1462997 189.17915035 29.63305307 189.15954514 23.11975098 189.1373291 C16.45614693 189.11676305 9.79253373 189.10771247 3.12890625 189.09765625 C-9.91410107 189.07629404 -22.95704566 189.04261077 -36 189 C-35.84839484 187.41377424 -35.69477273 185.82774118 -35.54031372 184.24179077 C-35.45498446 183.35854818 -35.36965519 182.4753056 -35.28174019 181.56529808 C-34.90561411 178.14059848 -34.28776653 174.79269794 -33.6171875 171.4140625 C-33.48255096 170.72849274 -33.34791443 170.04292297 -33.209198 169.33657837 C-32.76871954 167.09852156 -32.3218371 164.86179511 -31.875 162.625 C-31.5571277 161.01539607 -31.23975553 159.4056933 -30.92285156 157.79589844 C-30.26850446 154.47390436 -29.61205158 151.15233697 -28.95410156 147.83105469 C-28.08204607 143.42309523 -27.22142436 139.01300644 -26.3671875 134.6015625 C-26.23516434 133.91988007 -26.10314117 133.23819763 -25.96711731 132.53585815 C-25.69794241 131.14567741 -25.42880303 129.75548978 -25.15969849 128.36529541 C-22.90190778 116.70820009 -20.61964485 105.0559906 -18.32421875 93.40625 C-17.36186751 88.52085532 -16.39963108 83.63543804 -15.4375 78.75 C-15.19816742 77.5349881 -14.95883484 76.3199762 -14.71224976 75.06814575 C-11.70507233 59.79317456 -8.72284683 44.51517116 -5.92553711 29.20019531 C-4.68785587 22.46760622 -3.33630748 15.76593895 -1.91772461 9.06958008 C-1.73288261 8.19444008 -1.54804062 7.31930008 -1.35759735 6.41764069 C-0.90565147 4.27830239 -0.45310582 2.13909287 0 0 Z " fill="#142D4F" transform="translate(1707,82)"/>
<path d="M0 0 C13.30082124 -0.06979137 26.60159826 -0.1229585 39.90256596 -0.15543652 C46.08004835 -0.17103149 52.25740462 -0.19215615 58.43481445 -0.22631836 C64.4065263 -0.25913292 70.37811752 -0.27689929 76.34991264 -0.28463173 C78.61785211 -0.29013581 80.88578566 -0.30088286 83.15367317 -0.31719017 C103.12473291 -0.45496233 123.58237127 -0.17361059 138.8125 14.6171875 C142.08387998 18.18065498 144.71172166 21.73808159 147 26 C147.61875 27.09054688 147.61875 27.09054688 148.25 28.203125 C153.57394583 39.66439727 152.81578351 57.41449276 149.09765625 69.3125 C141.9935888 86.70608864 130.88125261 98.54181562 113.609375 105.93359375 C112.74828125 106.28550781 111.8871875 106.63742188 111 107 C110.24203125 107.32097656 109.4840625 107.64195312 108.703125 107.97265625 C104.95716561 109.48653082 102.01097893 110.13094261 98 110 C98.38220703 110.55236328 98.76441406 111.10472656 99.15820312 111.67382812 C106.52593767 122.37521873 113.49300435 132.94678764 118.95019531 144.74902344 C120.16729445 147.35871042 121.42192882 149.94873094 122.6796875 152.5390625 C126.96750122 161.38778979 131.19987018 170.26130957 135.1875 179.25 C135.62461304 180.22356445 135.62461304 180.22356445 136.07055664 181.21679688 C137.28770154 184.00619769 138 185.91776689 138 189 C121.17 189 104.34 189 87 189 C85.246875 184.91625 83.49375 180.8325 81.6875 176.625 C80.80880249 174.57962036 80.80880249 174.57962036 79.91235352 172.49291992 C77.23559158 166.25254021 74.57666794 160.00614364 71.96484375 153.73828125 C71.48635986 152.59343262 71.00787598 151.44858398 70.51489258 150.26904297 C69.6152334 148.11257905 68.72022774 145.95416533 67.83081055 143.79345703 C61.09288796 127.38947131 61.09288796 127.38947131 48.15551758 115.86694336 C43.95425769 114.17720796 39.53718172 114.31728845 35.0625 114.25 C33.6074707 114.20552734 33.6074707 114.20552734 32.12304688 114.16015625 C29.74857043 114.08997468 27.375113 114.040293 25 114 C24.95015457 114.60744553 24.90030914 115.21489105 24.84895325 115.84074402 C24.29940428 121.95379308 23.34652402 127.86264489 22.07421875 133.86328125 C21.79092461 135.23228828 21.79092461 135.23228828 21.50190735 136.62895203 C20.90191373 139.52449295 20.29510623 142.41854792 19.6875 145.3125 C19.09180121 148.16740903 18.49766306 151.02263157 17.90522766 153.8782196 C17.53887975 155.64218716 17.17064092 157.40576407 16.79972839 159.16877747 C14.73070555 169.08950698 12.89729463 179.03920317 11 189 C-4.84 189 -20.68 189 -37 189 C-34.75292969 173.27050781 -34.75292969 173.27050781 -33.44921875 167.14453125 C-33.31025681 166.48304581 -33.17129486 165.82156036 -33.02812195 165.14002991 C-32.73502442 163.74538309 -32.44014074 162.35111048 -32.14349365 160.95721436 C-31.35165112 157.23287294 -30.57542318 153.50529554 -29.80078125 149.77734375 C-29.64557007 149.03067444 -29.49035889 148.28400513 -29.33044434 147.51470947 C-27.91249565 140.65277689 -26.62436922 133.76955473 -25.375 126.875 C-23.49677393 116.53140068 -21.42275353 106.24236062 -19.25 95.95703125 C-17.29377018 86.68480755 -15.46356115 77.38716411 -13.61621094 68.09277344 C-13.02100413 65.1054201 -12.42154328 62.11895872 -11.8203125 59.1328125 C-9.90573929 49.61496291 -8.01322248 40.09327922 -6.1640625 30.5625 C-5.92672897 29.33941887 -5.92672897 29.33941887 -5.68460083 28.09162903 C-4.89537487 24.02198981 -4.10796543 19.95200744 -3.32275391 15.8815918 C-3.03288824 14.38329872 -2.74301241 12.88500762 -2.453125 11.38671875 C-2.32104645 10.69928589 -2.1889679 10.01185303 -2.05288696 9.30358887 C-1.44732675 6.17776813 -0.78870294 3.08426603 0 0 Z " fill="#142D4F" transform="translate(1309,82)"/>
<path d="M0 0 C33.01156347 -0.08827892 66.02301184 -0.1620981 99.03465793 -0.20426132 C102.937168 -0.20926379 106.83967781 -0.21444112 110.7421875 -0.21972656 C111.51906561 -0.2207758 112.29594372 -0.22182505 113.09636359 -0.22290608 C125.65463894 -0.24028352 138.21284061 -0.27180645 150.77107234 -0.30861118 C163.66909689 -0.34609485 176.567083 -0.3682515 189.46515977 -0.37635398 C197.41589052 -0.38182641 205.36641295 -0.39907353 213.31707953 -0.43166587 C219.42666392 -0.4554263 225.53609144 -0.45780119 231.64571571 -0.45243073 C234.14253708 -0.45352685 236.63936669 -0.46142555 239.13614082 -0.4768219 C257.4562284 -0.58420596 273.79824062 -0.15459346 288.09375 12.9140625 C294.52978717 19.75916982 297.20846522 26.08624801 297.5 35.5 C297.20451212 45.04139895 294.46049625 51.22438536 287.96875 58.15625 C276.74977491 68.66290921 263.40191137 72.16424688 248.4458313 72.12025452 C246.85168138 72.12153615 246.85168138 72.12153615 245.22532642 72.12284368 C241.66468614 72.12449062 238.10409297 72.11898994 234.54345703 72.11352539 C231.99088034 72.11324332 229.43830357 72.11340163 226.88572693 72.1139679 C221.39043707 72.11419561 215.89516238 72.1113594 210.39987564 72.10573006 C202.45465668 72.09759633 194.50944345 72.09499791 186.56422077 72.09374207 C173.67301892 72.09155449 160.78182341 72.08490239 147.890625 72.07543945 C135.36946647 72.06625772 122.84830966 72.05918061 110.32714844 72.05493164 C109.16906517 72.05453756 109.16906517 72.05453756 107.98758627 72.05413551 C104.11433564 72.05283045 100.24108499 72.05156675 96.36783433 72.05032361 C64.24521727 72.03996017 32.122612 72.02152679 0 72 C0 48.24 0 24.48 0 0 Z " fill="#1A4B97" transform="translate(156,123)"/>
<path d="M0 0 C1.72532455 0.06967735 1.72532455 0.06967735 3.48550415 0.14076233 C4.67560089 0.15349686 5.86569763 0.16623138 7.09185791 0.17935181 C10.88402135 0.2296382 14.67135609 0.34253888 18.46206665 0.45716858 C21.03621617 0.50232058 23.61044089 0.54338387 26.1847229 0.58021545 C32.48714489 0.67931503 38.78676088 0.82980697 45.08706665 1.01966858 C45.19902374 1.65240189 45.31098083 2.28513519 45.42633057 2.93704224 C51.5389128 37.89958123 51.5389128 37.89958123 58.14956665 72.76966858 C61.3428369 88.83750329 64.05609074 104.98827792 66.82803345 121.13294983 C68.81321564 132.69004254 70.81085524 144.24216603 72.96206665 155.76966858 C73.15445923 156.80091858 73.34685181 157.83216858 73.54507446 158.89466858 C74.36171138 163.24227408 75.19575165 167.58592708 76.0519104 171.92591858 C76.19709106 172.67131897 76.34227173 173.41671936 76.49185181 174.18470764 C76.8571594 176.05280754 77.2313007 177.91917492 77.6065979 179.78529358 C78.08706665 183.01966858 78.08706665 183.01966858 78.08706665 190.01966858 C62.57706665 190.01966858 47.06706665 190.01966858 31.08706665 190.01966858 C30.26206665 185.37904358 29.43706665 180.73841858 28.58706665 175.95716858 C28.32603149 174.5068927 28.06499634 173.05661682 27.79605103 171.56239319 C27.59302368 170.4023175 27.38999634 169.24224182 27.18081665 168.04701233 C26.97134399 166.86872864 26.76187134 165.69044495 26.54605103 164.47645569 C26.08706665 161.01966858 26.08706665 161.01966858 26.08706665 154.01966858 C2.32706665 154.34966858 -21.43293335 154.67966858 -45.91293335 155.01966858 C-51.85293335 166.56966858 -57.79293335 178.11966858 -63.91293335 190.01966858 C-80.41293335 190.01966858 -96.91293335 190.01966858 -113.91293335 190.01966858 C-112.38249482 186.19357226 -110.7904069 182.75949413 -108.85824585 179.14466858 C-108.24988892 178.00586243 -107.64153198 176.86705627 -107.01473999 175.69374084 C-106.35609217 174.46889532 -105.69714945 173.24420834 -105.03793335 172.01966858 C-104.53373367 171.08028946 -104.53373367 171.08028946 -104.01934814 170.12193298 C-99.31949561 161.37013307 -94.50564116 152.69544066 -89.53768921 144.09242249 C-85.30095196 136.74276583 -81.1891282 129.32723886 -77.10043335 121.89466858 C-76.76381683 121.28288757 -76.42720032 120.67110657 -76.0803833 120.04078674 C-74.71452511 117.55829877 -73.34869998 115.07579267 -71.98316956 112.59312439 C-68.3529464 105.9960242 -64.69713041 99.41323053 -61.03793335 92.83216858 C-60.09663574 91.13906555 -60.09663574 91.13906555 -59.13632202 89.41175842 C-57.93601838 87.25315425 -56.73558511 85.09462216 -55.53500366 82.93617249 C-53.32623977 78.96478575 -51.11952077 74.99226485 -48.91293335 71.01966858 C-48.52927612 70.32921448 -48.1456189 69.63876038 -47.75033569 68.92738342 C-45.31877199 64.55136241 -42.88885154 60.17443299 -40.45980835 55.79701233 C-37.58763513 50.62163544 -34.71256304 45.4478798 -31.83494568 40.27552795 C-30.21063709 37.35544091 -28.58803094 34.43443226 -26.96908569 31.5113678 C-25.09963065 28.13721783 -23.22545672 24.7657266 -21.35043335 21.39466858 C-20.51173706 19.87667664 -20.51173706 19.87667664 -19.65609741 18.32801819 C-19.12081421 17.36774719 -18.58553101 16.4074762 -18.0340271 15.41810608 C-17.57439575 14.58972229 -17.1147644 13.7613385 -16.64120483 12.90785217 C-15.78571045 11.47820129 -15.78571045 11.47820129 -14.91293335 10.01966858 C-14.55179443 9.25797867 -14.19065552 8.49628876 -13.818573 7.71151733 C-10.29563591 1.13674395 -7.34839905 -0.00462241 0 0 Z " fill="#142D4F" transform="translate(1169.9129333496094,80.98033142089844)"/>
<path d="M0 0 C0.95486298 0.00444122 1.90972595 0.00888245 2.89352417 0.01345825 C4.51497849 0.01368484 4.51497849 0.01368484 6.16918945 0.01391602 C7.92548172 0.02939987 7.92548172 0.02939987 9.71725464 0.04519653 C11.51088943 0.04944138 11.51088943 0.04944138 13.34075928 0.05377197 C17.17208733 0.06499599 21.00318436 0.09010472 24.83444214 0.11550903 C27.42688669 0.12553596 30.01933489 0.1346623 32.61178589 0.14285278 C38.97775056 0.16494257 45.34357985 0.19844197 51.70944214 0.24050903 C58.24015968 34.88233604 64.59313016 69.55673133 70.89694214 104.24050903 C71.06221405 105.14980164 71.22748596 106.05909424 71.39776611 106.99594116 C72.92379347 115.39345759 74.44828801 123.79124614 75.96562195 132.19033813 C76.48481989 135.06389745 77.00472075 137.93732912 77.52496338 140.81069946 C77.77046754 142.16686374 78.01577201 143.52306419 78.26086426 144.87930298 C79.52812145 151.88589248 80.82483751 158.8850817 82.18991089 165.87332153 C82.5424292 167.6780896 82.5424292 167.6780896 82.90206909 169.51931763 C83.34257485 171.7601444 83.78741262 174.00012596 84.23751831 176.23904419 C84.43192505 177.22437134 84.62633179 178.20969849 84.82662964 179.22488403 C84.99791382 180.07792114 85.169198 180.93095825 85.34567261 181.80984497 C85.70944214 184.24050903 85.70944214 184.24050903 85.70944214 189.24050903 C69.86944214 189.24050903 54.02944214 189.24050903 37.70944214 189.24050903 C36.88444214 184.04300903 36.05944214 178.84550903 35.20944214 173.49050903 C34.94840698 171.85630005 34.68737183 170.22209106 34.41842651 168.5383606 C34.1138855 166.60428345 34.1138855 166.60428345 33.80319214 164.63113403 C33.69523315 163.9606604 33.58727417 163.29018677 33.4760437 162.59939575 C32.97759956 159.4117268 32.70944214 156.48133883 32.70944214 153.24050903 C8.94944214 153.24050903 -14.81055786 153.24050903 -39.29055786 153.24050903 C-40.28055786 156.21050903 -40.28055786 156.21050903 -41.29055786 159.24050903 C-42.14432377 161.05002484 -43.03892909 162.84075166 -43.97024536 164.61160278 C-44.48715942 165.59838013 -45.00407349 166.58515747 -45.53665161 167.60183716 C-46.07419067 168.61697388 -46.61172974 169.6321106 -47.16555786 170.67800903 C-47.69536255 171.68927856 -48.22516724 172.7005481 -48.77102661 173.74246216 C-51.52054354 178.97200242 -54.35687268 184.10655997 -57.29055786 189.24050903 C-73.46055786 189.24050903 -89.63055786 189.24050903 -106.29055786 189.24050903 C-105.52259517 186.16865827 -104.88581661 184.20589463 -103.46243286 181.50222778 C-102.89141846 180.41421875 -102.89141846 180.41421875 -102.30886841 179.30422974 C-101.89032593 178.5200769 -101.47178345 177.73592407 -101.04055786 176.92800903 C-100.59945679 176.09551636 -100.15835571 175.26302368 -99.70388794 174.40530396 C-95.70509872 166.91129728 -91.5247044 159.5238969 -87.3208313 152.14358521 C-83.38666263 145.22323341 -79.56193604 138.25075522 -75.79055786 131.24050903 C-68.93706616 118.51421466 -61.81623893 105.94697885 -54.66555786 93.38601685 C-48.03553866 81.73168621 -41.52013691 70.02817492 -35.16555786 58.22122192 C-30.94439209 50.39722521 -26.590973 42.65500912 -22.18972778 34.93118286 C-17.46781412 26.61920808 -12.91875371 18.21810426 -8.42727661 9.77957153 C-7.6577063 8.34291138 -7.6577063 8.34291138 -6.87258911 6.87722778 C-6.42117554 6.02862183 -5.96976196 5.18001587 -5.50466919 4.30569458 C-3.939067 1.64262824 -3.16442719 0.33226549 0 0 Z " fill="#142D4F" transform="translate(1560.2905578613281,81.75949096679688)"/>
<path d="M0 0 C32.2301837 -0.11037153 64.46018296 -0.20263653 96.69049898 -0.25532665 C100.50159275 -0.26157966 104.31268612 -0.26805132 108.1237793 -0.2746582 C108.88245141 -0.27596976 109.64112352 -0.27728131 110.42278569 -0.2786326 C122.6829488 -0.3003479 134.94299386 -0.33974785 147.2030871 -0.38576398 C159.79714037 -0.43263688 172.3911321 -0.4603182 184.98526901 -0.47044247 C192.74718835 -0.47727929 200.5087739 -0.49881726 208.27059042 -0.53958233 C214.23746599 -0.56931074 220.20405868 -0.572247 226.17101669 -0.56553841 C228.60776121 -0.56690726 231.04451907 -0.57676313 233.48118782 -0.59602737 C251.41238173 -0.73076649 267.39095007 0.18153054 281.1796875 13.03125 C287.68323316 19.79684329 291.11316309 26.55876164 291.5 36 C291.11553531 45.38334144 287.70853836 52.21657519 281.2578125 58.96484375 C270.25292196 68.88447692 256.24430503 72.1637154 241.83183289 72.12025452 C240.79850557 72.12110894 239.76517825 72.12196337 238.70053798 72.12284368 C235.23352794 72.12449251 231.76656614 72.11898682 228.29956055 72.11352539 C225.816096 72.11324336 223.33263137 72.11340155 220.84916687 72.1139679 C215.50009731 72.11419571 210.1510428 72.11135685 204.80197716 72.10573006 C197.0681458 72.09759997 189.33432035 72.09499829 181.60048518 72.09374207 C169.05258248 72.09155392 156.50468628 72.08490026 143.95678711 72.07543945 C131.76831088 72.0662592 119.57983641 72.05918136 107.39135742 72.05493164 C106.63994815 72.05466892 105.88853889 72.05440619 105.11435964 72.05413551 C101.34472687 72.05283046 97.57509408 72.05156676 93.80546129 72.05032361 C62.53696843 72.03995839 31.26848766 72.02152405 0 72 C0 48.24 0 24.48 0 0 Z " fill="#1A4B97" transform="translate(658,123)"/>
<path d="M0 0 C3.1462502 2.73586974 5.52946347 5.66830502 8 9 C8.61746094 8.46890625 9.23492188 7.9378125 9.87109375 7.390625 C21.56519804 -2.36336153 31.85902573 -5.10257351 47 -4 C53.8669827 -2.449391 58.10854504 0.16281756 62 6 C69.78911788 18.81435522 61.24503559 39.54558024 57.97119141 52.98388672 C56.74425238 58.03095996 55.58605979 63.093079 54.4284668 68.15649414 C53.29477894 73.10643036 52.14594161 78.05288624 51 83 C42.42 83 33.84 83 25 83 C27.01484555 73.25849903 29.06972096 63.53992875 31.359375 53.859375 C31.55567505 53.02660034 31.7519751 52.19382568 31.95422363 51.33581543 C32.75619893 47.93837433 33.56011487 44.54146023 34.37451172 41.14697266 C34.98066695 38.61521512 35.57700897 36.08130529 36.171875 33.546875 C36.3561908 32.78953064 36.54050659 32.03218628 36.73040771 31.25189209 C38.02107568 25.70458406 38.84339496 20.53018488 37 15 C32.72481247 13.11891749 27.32389126 13.27759186 22.9140625 14.6484375 C13.52401089 18.85777098 9.60232818 26.77801071 6 36 C4.77209925 40.12687944 3.83406575 44.29009408 2.9375 48.5 C2.68782471 49.6240625 2.43814941 50.748125 2.1809082 51.90625 C0.4558557 59.71864603 -1.21053798 67.54648638 -2.79516602 75.38867188 C-3.89698877 80.79397753 -3.89698877 80.79397753 -5 83 C-13.25 83 -21.5 83 -30 83 C-29.35766985 76.57669847 -28.7578952 71.29063725 -27.22265625 65.19140625 C-27.05124619 64.49917465 -26.87983612 63.80694305 -26.70323181 63.09373474 C-26.16284838 60.91496438 -25.61339249 58.73863458 -25.0625 56.5625 C-20.54199855 39.73717816 -20.54199855 39.73717816 -18.5625 22.5 C-18.52253906 21.5203125 -18.48257812 20.540625 -18.44140625 19.53125 C-18.76712658 16.79447252 -18.76712658 16.79447252 -21.28125 15.1796875 C-26.20244181 13.04434278 -30.33390126 13.34662794 -35.1875 15.25 C-43.84240518 20.63527433 -48.06073643 27.24010418 -50.375 37.0625 C-50.66745605 38.23147827 -50.66745605 38.23147827 -50.96582031 39.42407227 C-53.95349725 51.56638603 -56.61954722 63.79342091 -59.32324219 76.00170898 C-59.85139633 78.34162999 -60.4182088 80.67283518 -61 83 C-69.58 83 -78.16 83 -87 83 C-85.65199691 75.58598302 -84.18483512 68.35570096 -82.375 61.0625 C-79.34019206 48.63872494 -76.55637449 36.16484129 -73.80419922 23.67602539 C-73.48017163 22.20588567 -73.15611621 20.73575208 -72.83203125 19.265625 C-72.67692078 18.56167099 -72.5218103 17.85771698 -72.36199951 17.13243103 C-70.95099156 10.74474854 -69.48270097 4.3714828 -68 -2 C-60.08 -2 -52.16 -2 -44 -2 C-44.33 0.97 -44.66 3.94 -45 7 C-43.865625 6.0925 -42.73125 5.185 -41.5625 4.25 C-30.06730815 -4.3867072 -12.71832975 -8.54339977 0 0 Z " fill="#172E4D" transform="translate(1289,393)"/>
<path d="M0 0 C1.38880371 0.00737183 1.38880371 0.00737183 2.80566406 0.01489258 C14.7507477 0.21885854 25.22074608 2.69430476 34.4375 10.625 C35.200625 11.511875 35.96375 12.39875 36.75 13.3125 C37.25402344 13.86421875 37.75804687 14.4159375 38.27734375 14.984375 C44.38557253 22.21269463 46.39045808 31.33702919 46.03125 40.69140625 C44.39094261 55.97815984 38.47420626 68.92824342 26.765625 79.0234375 C15.97836174 87.01250089 4.56853427 88.76596464 -8.5 88.875 C-10.13279907 88.89699463 -10.13279907 88.89699463 -11.79858398 88.91943359 C-24.79918372 88.75565583 -35.95140998 84.01137557 -45.0625 74.6875 C-52.76675516 65.13780698 -53.38486984 53.34667189 -52.52490234 41.56005859 C-51.42016602 32.5279071 -46.8120502 24.36239863 -41.25 17.3125 C-40.79625 16.71050781 -40.3425 16.10851562 -39.875 15.48828125 C-30.26974815 4.35719512 -14.12296576 -0.08849297 0 0 Z " fill="#172D4D" transform="translate(590.25,388.6875)"/>
<path d="M0 0 C1.3293457 0.01232666 1.3293457 0.01232666 2.68554688 0.02490234 C15.11956313 0.2379391 26.63669535 2.75142174 36.0625 11.5625 C45.36721815 21.82271488 45.81591576 32.69416996 45.29980469 45.8984375 C44.42115478 57.71848764 38.41156473 68.41331435 30 76.5625 C19.02814334 85.71197636 6.278895 88.60916413 -7.625 88.625 C-8.74132812 88.64949219 -9.85765625 88.67398438 -11.0078125 88.69921875 C-23.27444489 88.74210907 -33.39488505 84.87816564 -42.58984375 76.73046875 C-50.3262237 68.63975078 -52.57973498 58.8297086 -52.3984375 47.97338867 C-51.77767543 34.35829456 -46.42676721 21.65389858 -36.4765625 12.203125 C-25.57320477 4.017421 -13.55618768 -0.1520561 0 0 Z " fill="#172D4D" transform="translate(240.875,388.75)"/>
<path d="M0 0 C9.28019037 6.75061467 15.47248304 15.01338467 17.56640625 26.35546875 C17.82878729 28.02023119 18.08322281 29.68636622 18.31640625 31.35546875 C15.1085794 31.69379775 11.90007527 32.02523021 8.69140625 32.35546875 C7.78777344 32.45085937 6.88414062 32.54625 5.953125 32.64453125 C1.38577586 33.11126766 -3.08476563 33.47769674 -7.68359375 33.35546875 C-7.89113281 32.70320313 -8.09867187 32.0509375 -8.3125 31.37890625 C-10.86609144 24.13482676 -13.80456201 20.02321375 -20.5625 16.328125 C-29.2019524 12.54072869 -37.80659283 14.05046844 -46.5 16.96875 C-57.90720846 21.93753405 -64.01813799 30.84807936 -68.49609375 42.04296875 C-72.50360717 52.6648247 -74.24069265 67.66729684 -69.71484375 78.5 C-66.49051825 84.30134322 -62.619483 88.259764 -56.3671875 90.6953125 C-47.21879825 92.94578962 -37.83033124 92.15850181 -29.68359375 87.35546875 C-23.82232795 83.27222362 -20.14525008 78.52741415 -16.68359375 72.35546875 C-15.69359375 70.87046875 -15.69359375 70.87046875 -14.68359375 69.35546875 C-5.92394113 69.90025893 2.66203608 70.89654874 11.31640625 72.35546875 C9.70106882 83.56059422 0.95406296 94.02045241 -7.77734375 100.734375 C-17.64823066 107.66879706 -29.44780077 113.03957048 -41.68359375 113.35546875 C-43.47216797 113.43087891 -43.47216797 113.43087891 -45.296875 113.5078125 C-59.61238777 113.93640005 -73.04179681 111.33399097 -84.484375 102.09375 C-93.71559187 93.38221645 -98.47191085 83.46644109 -99.0546875 70.7734375 C-99.48687267 49.03347796 -96.29232643 29.41433841 -80.99047852 13.06591797 C-61.12269683 -7.13929011 -25.22892993 -15.46052329 0 0 Z " fill="#162D4D" transform="translate(164.68359375,364.64453125)"/>
<path d="M0 0 C7.40661967 6.20089089 12.85497286 13.19427142 14.02050781 23.07226562 C14.11396839 25.95478675 14.08782117 28.8050141 14 31.6875 C13.99033203 32.66654297 13.98066406 33.64558594 13.97070312 34.65429688 C13.85875496 41.73623512 13.85875496 41.73623512 12.6875 45.25 C-8.7625 45.25 -30.2125 45.25 -52.3125 45.25 C-50.74956827 53.62724752 -50.74956827 53.62724752 -45.5 62.3125 C-44.4171875 62.7765625 -44.4171875 62.7765625 -43.3125 63.25 C-42.43271484 63.76240234 -42.43271484 63.76240234 -41.53515625 64.28515625 C-36.51364282 66.46496964 -30.11651386 66.05770285 -24.92578125 64.5625 C-21.09676081 62.81209066 -19.51817353 61.57060874 -17.1875 57.9375 C-14.3125 55.25 -14.3125 55.25 -11.2109375 55.01953125 C-4.43309361 55.44768199 2.1190979 56.55127532 8.6875 58.25 C7.14133945 65.12182469 2.94473663 69.83477012 -2.609375 73.953125 C-15.33320457 81.97643155 -29.34162927 85.10863519 -44.28125 82.7890625 C-55.4445667 80.06239032 -64.68148653 74.75862309 -71.3125 65.25 C-77.5256799 53.97958064 -78.21437257 40.70757416 -74.75 28.375 C-70.25439674 15.81237345 -62.24188575 5.70400573 -50.375 -0.625 C-48.70356062 -1.37044133 -47.01551683 -2.07983134 -45.3125 -2.75 C-44.5184375 -3.06839844 -43.724375 -3.38679688 -42.90625 -3.71484375 C-28.78185101 -8.44477366 -13.02010824 -6.87854775 0 0 Z " fill="#172D4C" transform="translate(1182.3125,394.75)"/>
<path d="M0 0 C8.25 0 16.5 0 25 0 C28.50937769 19.64081716 31.9449844 39.28226018 35 59 C35.40347656 58.13503906 35.80695312 57.27007812 36.22265625 56.37890625 C41.00671581 46.37006057 46.45254594 36.81348528 52.32348633 27.40087891 C55.37785044 22.49399039 58.22318692 17.72957892 60.46484375 12.39453125 C64.76230879 2.73030486 64.76230879 2.73030486 69 0 C77.82774179 -2.11149477 87.08088863 -1.10579213 96 0 C92.43393624 6.68191391 88.72956132 13.19813208 84.625 19.5625 C79.76170298 27.18594223 74.98239192 34.85712146 70.25 42.5625 C69.57678711 43.65796143 68.90357422 44.75342285 68.20996094 45.88208008 C65.45431437 50.36832751 62.70099724 54.85599521 59.95019531 59.34521484 C52.81262479 70.9929768 45.65768255 82.62973241 38.375 94.1875 C37.81925293 95.07791992 37.26350586 95.96833984 36.69091797 96.88574219 C28.0906239 110.45468805 28.0906239 110.45468805 21.25 113.875 C20.49203125 114.26429688 19.7340625 114.65359375 18.953125 115.0546875 C18.30859375 115.36664063 17.6640625 115.67859375 17 116 C16.01 116.495 16.01 116.495 15 117 C11.60982856 117.24096906 8.21028264 117.18520265 4.8125 117.1875 C3.87857422 117.19974609 2.94464844 117.21199219 1.98242188 117.22460938 C1.06654297 117.22654297 0.15066406 117.22847656 -0.79296875 117.23046875 C-1.6233667 117.23457764 -2.45376465 117.23868652 -3.30932617 117.24291992 C-6 117 -6 117 -13 115 C-12.505 106.09 -12.505 106.09 -12 97 C-10.02 97.33 -8.04 97.66 -6 98 C-1.43178005 98.46443569 1.97900411 98.48046866 6.1875 96.5 C12.27172126 91.29660601 12.27172126 91.29660601 15.24902344 84.15258789 C15.46818238 77.51102124 13.97555521 71.24980202 12.5 64.8125 C11.95359617 62.34132941 11.40807411 59.86996374 10.86328125 57.3984375 C10.56341122 56.05043405 10.26344062 54.70245298 9.96337891 53.35449219 C8.34523814 46.06229429 6.77844622 38.75910835 5.22460938 31.45297241 C4.69815043 28.98737973 4.1637001 26.52361047 3.62890625 24.05981445 C3.29774995 22.50741527 2.96700272 20.95492876 2.63671875 19.40234375 C2.48591354 18.7167337 2.33510834 18.03112366 2.17973328 17.32473755 C0.95211946 11.48340652 0.55202964 6.07232603 0 0 Z " fill="#162D4D" transform="translate(851,391)"/>
<path d="M0 0 C5.4872302 5.94449938 7.7614109 11.92726468 7.59057617 19.96459961 C6.82696642 27.75122949 4.80827887 35.33961833 3 42.9375 C2.39896718 45.51001781 1.8013886 48.08332018 1.20422363 50.65673828 C0.80939552 52.35726208 0.41316749 54.05746148 0.01550293 55.75732422 C-2.04976725 64.62175189 -3.90313892 73.52512452 -5.75 82.4375 C-14.33 82.4375 -22.91 82.4375 -31.75 82.4375 C-31.11266154 77.33879236 -30.48432207 72.87951042 -29.26171875 67.98046875 C-28.96918213 66.79412842 -28.67664551 65.60778809 -28.37524414 64.38549805 C-27.91106079 62.52405151 -27.91106079 62.52405151 -27.4375 60.625 C-25.31446414 51.97699361 -23.19782882 43.32850426 -21.3125 34.625 C-21.06729614 33.53578247 -21.06729614 33.53578247 -20.81713867 32.42456055 C-19.80289927 27.63588148 -19.46814555 23.3020991 -19.75 18.4375 C-21.95740681 15.46891843 -23.23597373 14.60884209 -26.75 13.4375 C-33.87124989 12.68789475 -38.81602585 14.44924984 -44.75 18.4375 C-55.35589966 27.73028827 -57.17603685 40.80084052 -59.875 53.9375 C-60.22432973 55.60306005 -60.57458354 57.26842657 -60.92578125 58.93359375 C-61.5736428 62.00860178 -62.21539041 65.08476504 -62.85205078 68.16210938 C-63.15063474 69.58739322 -63.44997653 71.01251848 -63.75 72.4375 C-63.92223083 73.26419189 -64.09446167 74.09088379 -64.27191162 74.94262695 C-64.44627747 75.75884521 -64.62064331 76.57506348 -64.80029297 77.41601562 C-64.95803192 78.16161743 -65.11577087 78.90721924 -65.27828979 79.67541504 C-65.75 81.4375 -65.75 81.4375 -66.75 82.4375 C-68.60369611 82.52487645 -70.46067541 82.54448153 -72.31640625 82.53515625 C-73.44111328 82.53193359 -74.56582031 82.52871094 -75.72460938 82.52539062 C-76.90861328 82.51701172 -78.09261719 82.50863281 -79.3125 82.5 C-80.50037109 82.49548828 -81.68824219 82.49097656 -82.91210938 82.48632812 C-85.85812226 82.47449675 -88.80403681 82.45801287 -91.75 82.4375 C-91.02302779 75.03894734 -89.36253967 67.922607 -87.6875 60.6875 C-87.21890315 58.64267396 -86.75186779 56.59749541 -86.2849884 54.55227661 C-85.95660465 53.11376915 -85.62781119 51.67535516 -85.29862976 50.23703003 C-83.30601842 41.52086035 -81.37242431 32.79162037 -79.4375 24.0625 C-79.09695896 22.52766148 -78.7563836 20.99283057 -78.41577148 19.45800781 C-78.25379776 18.72775391 -78.09182404 17.9975 -77.92494202 17.24511719 C-77.61311934 15.84007985 -77.30090797 14.4351287 -76.98826599 13.03027344 C-76.35209174 10.16915528 -75.72224657 7.30716293 -75.11181641 4.44042969 C-73.85070749 -1.46179251 -73.85070749 -1.46179251 -72.75 -2.5625 C-71.04227642 -2.64963831 -69.33101351 -2.66950007 -67.62109375 -2.66015625 C-66.06938477 -2.65532227 -66.06938477 -2.65532227 -64.48632812 -2.65039062 C-63.39771484 -2.64201172 -62.30910156 -2.63363281 -61.1875 -2.625 C-59.5487793 -2.61823242 -59.5487793 -2.61823242 -57.87695312 -2.61132812 C-55.16791505 -2.59949826 -52.45898401 -2.58301543 -49.75 -2.5625 C-49.75 0.4075 -49.75 3.3775 -49.75 6.4375 C-48.68072266 5.73173828 -48.68072266 5.73173828 -47.58984375 5.01171875 C-32.91189647 -4.52993473 -16.21495361 -9.21304182 0 0 Z " fill="#172E4D" transform="translate(386.75,393.5625)"/>
<path d="M0 0 C1.04285156 -0.01224609 2.08570313 -0.02449219 3.16015625 -0.03710938 C14.38780472 -0.05813493 25.80871065 1.20131516 34.453125 9.08203125 C42.375 17.78610819 42.375 17.78610819 42.375 23.1875 C39.31352743 23.69392925 36.25067701 24.19149322 33.1875 24.6875 C32.32318359 24.83058594 31.45886719 24.97367187 30.56835938 25.12109375 C21.59320513 26.56537144 21.59320513 26.56537144 18.375 26.1875 C17.7975 25.445 17.22 24.7025 16.625 23.9375 C12.74188317 19.19146832 8.15184357 17.48644249 2.109375 16.8359375 C-3.878651 16.68555329 -8.63080824 16.71931128 -13.625 20.1875 C-14.98118499 21.31284105 -14.98118499 21.31284105 -14.6875 24.25 C-14.666875 25.219375 -14.64625 26.18875 -14.625 27.1875 C-8.93444586 30.26013939 -3.65137295 32.15312701 2.625 33.625 C14.34508369 36.56155291 26.62478822 39.82004116 34.375 49.75 C36.42577828 56.79955035 36.76110726 64.39324144 33.375 71.0625 C26.55264499 81.43856082 16.20957679 85.98169778 4.43701172 88.79711914 C1.10999522 89.4269912 -2.18945802 89.52807526 -5.5625 89.5 C-6.28904785 89.49436035 -7.0155957 89.4887207 -7.76416016 89.48291016 C-22.17735941 89.16991658 -35.54173479 86.87489432 -46.5625 76.875 C-50.13430121 73.02844485 -53.625 67.59206108 -53.625 62.1875 C-50.58419579 61.68170286 -47.54253354 61.18269241 -44.5 60.6875 C-43.6440625 60.54441406 -42.788125 60.40132813 -41.90625 60.25390625 C-32.32830575 58.70669987 -32.32830575 58.70669987 -28.625 59.1875 C-27.26171875 60.796875 -27.26171875 60.796875 -26.3125 62.9375 C-23.95820244 67.12621868 -21.77215681 68.88097198 -17.28515625 70.56640625 C-9.06930373 72.48464494 -1.17603764 71.89178262 6.375 68.1875 C8.66430236 66.30611241 8.66430236 66.30611241 8.75 63.25 C8.70089838 60.16427452 8.70089838 60.16427452 6.72094727 58.6105957 C4.00630093 56.96384021 1.52989118 56.18422567 -1.53515625 55.35546875 C-2.69080078 55.03126953 -3.84644531 54.70707031 -5.03710938 54.37304688 C-7.4422833 53.71545251 -9.84851428 53.06171043 -12.25585938 52.41210938 C-22.99241064 49.38781242 -33.16006878 45.76152028 -39.625 36.1875 C-41.95434028 31.52881945 -41.29486305 24.83979558 -40.046875 19.8984375 C-36.47564981 11.74955092 -29.27854642 6.63484024 -21.3125 3.25 C-13.9516262 0.41149311 -7.85778838 0.00475078 0 0 Z " fill="#172D4C" transform="translate(993.625,388.8125)"/>
<path d="M0 0 C1.02029297 -0.01611328 2.04058594 -0.03222656 3.09179688 -0.04882812 C13.97549874 -0.05577369 23.34723971 2.63730064 32.0625 9.3125 C36.381466 13.70155064 38.28465368 17.15964819 39.0625 23.3125 C35.91260559 23.82102527 32.76166936 24.31315482 29.60546875 24.78125 C27.43686001 25.10642176 25.27139991 25.4550028 23.11328125 25.84375 C20.68429865 26.22134969 18.51332312 26.51393752 16.0625 26.3125 C14.0625 24.125 14.0625 24.125 12.0625 21.3125 C5.19537788 17.16581472 -2.0688975 16.34876626 -9.9375 17.3125 C-13.44186082 18.64174031 -15.3209084 19.6959084 -17.9375 22.3125 C-18.24365946 24.79849612 -18.24365946 24.79849612 -16.9375 27.3125 C-9.71991815 31.53969876 -1.98536489 33.43413989 6.04296875 35.58007812 C15.00585326 38.06850286 23.96504049 40.92163999 30.0625 48.3125 C30.660625 49.01375 31.25875 49.715 31.875 50.4375 C34.21993427 56.1147093 33.85152711 62.68091481 32 68.5 C28.34599701 76.6963645 22.40096776 81.38786671 14.359375 85.05859375 C-1.62238535 91.13696469 -21.267863 91.7035136 -37.21484375 84.91796875 C-39.89102334 83.49905474 -42.41768085 81.99088753 -44.9375 80.3125 C-45.88625 79.69375 -46.835 79.075 -47.8125 78.4375 C-52.58844564 73.66155436 -55.05857678 69.0190663 -55.9375 62.3125 C-54.61685547 62.11333984 -54.61685547 62.11333984 -53.26953125 61.91015625 C-52.10808594 61.73355469 -50.94664062 61.55695313 -49.75 61.375 C-48.60144531 61.20097656 -47.45289063 61.02695312 -46.26953125 60.84765625 C-43.47354456 60.39859391 -40.71111192 59.87950755 -37.9375 59.3125 C-34.4375 58.75 -34.4375 58.75 -30.9375 59.3125 C-29.66015625 60.95703125 -29.66015625 60.95703125 -28.5 63.0625 C-26.35172794 66.94591488 -24.54480099 68.9394825 -20.44140625 70.69140625 C-12.20536225 72.73435632 -3.47135433 72.22430898 4.0625 68.3125 C6.2144437 65.08458445 6.26336443 64.02849191 6.0625 60.3125 C-0.78176538 56.70370553 -7.50553911 54.22444187 -14.97265625 52.2265625 C-26.11245828 49.19908062 -34.91210826 45.97241364 -41.9375 36.3125 C-44.26395848 31.65958303 -43.65791518 24.89471103 -42.2890625 19.98828125 C-38.45970621 11.65861308 -32.18802075 6.98984529 -23.9765625 3.35546875 C-15.96419685 0.60572372 -8.44732062 -0.02658062 0 0 Z " fill="#172D4C" transform="translate(796.9375,388.6875)"/>
<path d="M0 0 C3.85621185 3.30228086 7.05706026 7.01469459 9 11.75 C9 13.07 9 14.39 9 15.75 C6.10496617 16.25505263 3.20912047 16.7542022 0.3125 17.25 C-0.50412109 17.39308594 -1.32074219 17.53617187 -2.16210938 17.68359375 C-10.70087614 19.1355298 -10.70087614 19.1355298 -14 18.75 C-15.37073786 17.11395804 -16.70055256 15.44321939 -18 13.75 C-25.16843367 9.5684137 -31.8081668 9.10471541 -40 9.75 C-43.84915157 11.23625212 -43.84915157 11.23625212 -47 13.75 C-47.04080783 15.74958364 -47.04254356 17.75045254 -47 19.75 C-41.34117117 22.80499415 -36.11756786 24.67661136 -29.875 26.125 C-4.88143843 32.37583022 -4.88143843 32.37583022 2.14453125 43.57421875 C4.28300849 49.01317684 3.93261166 55.85673498 2.16015625 61.35546875 C-2.73946076 70.94024142 -11.10850263 76.17190977 -21 79.75 C-27.25855758 81.25375389 -33.59797023 81.01424349 -40 81.0625 C-41.87751953 81.10600586 -41.87751953 81.10600586 -43.79296875 81.15039062 C-57.13238842 81.24024164 -68.79549095 78.25126542 -78.77734375 69.125 C-82.80584764 64.86995433 -84.54659127 60.37239692 -86 54.75 C-77.69187796 53.00359884 -69.47097928 52.21992294 -61 51.75 C-60.731875 52.28109375 -60.46375 52.8121875 -60.1875 53.359375 C-57.68809826 57.86487551 -55.38585659 61.074274 -50.5703125 63.125 C-43.40035936 64.86845365 -35.01668313 65.06110795 -28.125 62.1875 C-24.66015987 59.9904044 -24.66015987 59.9904044 -24 56 C-24 54.9275 -24 53.855 -24 52.75 C-31.18628633 48.84960469 -38.48905685 46.68224 -46.3359375 44.48242188 C-57.17566182 41.33284772 -66.14347205 37.83863104 -72.1328125 27.86328125 C-74.08287008 23.1111139 -73.76216634 17.37878929 -72.34765625 12.5 C-68.53173191 4.11479286 -62.29319676 -0.55376639 -54.0390625 -4.20703125 C-37.3518574 -9.93387413 -14.81331773 -10.52588593 0 0 Z " fill="#172D4C" transform="translate(1447,396.25)"/>
<path d="M0 0 C0.66 0.33 1.32 0.66 2 1 C0.02 10.24 -1.96 19.48 -4 29 C0.95 29 5.9 29 11 29 C9.125 40.375 9.125 40.375 8 46 C2.39 46 -3.22 46 -9 46 C-9.33 48.64 -9.66 51.28 -10 54 C-10.50693994 56.39982127 -11.05044306 58.7921893 -11.62890625 61.17578125 C-11.94513506 62.51225782 -12.26087497 63.84885015 -12.57617188 65.18554688 C-13.06683579 67.24672649 -13.56110882 69.30680868 -14.06420898 71.36499023 C-16.07908167 79.64351043 -17.55801947 87.43581023 -17 96 C-14.16730334 97.41634833 -11.52533562 97.3463005 -8.375 97.5625 C-6.27125 97.706875 -4.1675 97.85125 -2 98 C-2.66 103.28 -3.32 108.56 -4 114 C-14.52125147 117.00607185 -25.4593055 117.67002178 -35.71875 113.34375 C-40.34698261 110.61753079 -43.3095176 107.07144719 -45 102 C-45.36617421 95.50938257 -44.28674676 89.8036945 -42.8125 83.5 C-42.35565669 81.478116 -41.89996781 79.45597088 -41.4453125 77.43359375 C-41.20844727 76.38800293 -40.97158203 75.34241211 -40.72753906 74.26513672 C-39.48967416 68.70969875 -38.33963443 63.13623782 -37.1875 57.5625 C-36.96876221 56.50804687 -36.75002441 55.45359375 -36.5246582 54.3671875 C-36.01547985 51.91165699 -35.50758757 49.45585984 -35 47 C-38.96 46.67 -42.92 46.34 -47 46 C-45.89430162 40.23457274 -44.70899657 34.61527443 -43 29 C-38.71 29 -34.42 29 -30 29 C-29.7525 27.1025 -29.505 25.205 -29.25 23.25 C-28.60445466 18.30081909 -27.73441004 16.27822918 -24 13 C-20.07876729 10.51577474 -15.96491868 8.38074879 -11.875 6.1875 C-10.76511719 5.57712891 -9.65523437 4.96675781 -8.51171875 4.33789062 C-6.92423828 3.4803418 -6.92423828 3.4803418 -5.3046875 2.60546875 C-4.33515137 2.08106201 -3.36561523 1.55665527 -2.36669922 1.01635742 C-1.58568848 0.68095947 -0.80467773 0.34556152 0 0 Z " fill="#172E4D" transform="translate(1095,362)"/>
<path d="M0 0 C-1.29114934 9.92146339 -3.47608349 19.3249867 -6 29 C-0.72 29 4.56 29 10 29 C9.51171875 31.66927083 9.0234375 34.33854167 8.53515625 37.0078125 C7.99980717 40.00107815 7.49989831 43.00061014 7 46 C1.39 46 -4.22 46 -10 46 C-10.26683594 47.55976563 -10.53367187 49.11953125 -10.80859375 50.7265625 C-11.75604527 55.94380656 -12.96032976 61.0596735 -14.25976562 66.19897461 C-18.21317578 80.39680614 -18.21317578 80.39680614 -19 95 C-17.08593338 97.35641524 -17.08593338 97.35641524 -13.7421875 97.1953125 C-12.46601563 97.17210937 -11.18984375 97.14890625 -9.875 97.125 C-7.95300781 97.09792969 -7.95300781 97.09792969 -5.9921875 97.0703125 C-4.51105469 97.03550781 -4.51105469 97.03550781 -3 97 C-3.28289472 99.25111973 -3.57664693 101.50087686 -3.875 103.75 C-4.03742188 105.00296875 -4.19984375 106.2559375 -4.3671875 107.546875 C-5.33855799 112.84743992 -5.33855799 112.84743992 -7 115 C-15.71398331 118.01204229 -28.80497966 117.1737938 -37.046875 113.20703125 C-41.26007455 110.60327393 -44.13498827 107.56618559 -46 103 C-47.31142011 92.59651779 -44.66254646 82.79329751 -42.125 72.8125 C-41.5729906 70.58338039 -41.02521918 68.35324794 -40.47772217 66.12301636 C-40.1270524 64.69639783 -39.7745985 63.27021648 -39.42022705 61.84451294 C-38.11921774 56.58758337 -37.000099 51.32157942 -36 46 C-39.96 46 -43.92 46 -48 46 C-47.25290691 40.2722863 -46.16268651 34.65840766 -45 29 C-40.38 29 -35.76 29 -31 29 C-30.896875 27.453125 -30.79375 25.90625 -30.6875 24.3125 C-30.40266018 20.03990264 -29.4948897 17.4948495 -27 14 C-24.39624023 12.1472168 -24.39624023 12.1472168 -21.30859375 10.44921875 C-20.19935547 9.83369141 -19.09011719 9.21816406 -17.94726562 8.58398438 C-16.20993164 7.64522461 -16.20993164 7.64522461 -14.4375 6.6875 C-13.26307765 6.03687876 -12.08924268 5.38519605 -10.91601562 4.73242188 C-2.30751488 0 -2.30751488 0 0 0 Z " fill="#172D4D" transform="translate(458,362)"/>
<path d="M0 0 C7.80424863 4.58946105 13.55347455 10.93195156 16.375 19.5625 C18.55641125 28.92698688 18.35944325 38.1704615 13.375 46.5625 C8.66373705 52.9675962 3.88354619 57.79110527 -3.625 60.5625 C-4.553125 60.975 -5.48125 61.3875 -6.4375 61.8125 C-15.43852252 63.93038765 -24.75160526 62.9232125 -32.81640625 58.30859375 C-41.2982241 52.40190086 -46.09953675 44.52167147 -48.625 34.5625 C-50.01664727 25.1493353 -46.79290963 16.21389072 -41.359375 8.6015625 C-31.20636604 -3.33508316 -14.16535953 -6.49621584 0 0 Z " fill="#F4F7FA" transform="translate(1521.625,363.4375)"/>
<path d="M0 0 C8.25 0 16.5 0 25 0 C23.7905943 7.25643423 22.56276921 14.31112597 20.875 21.4375 C19.23604167 28.49004443 17.65392608 35.55236172 16.140625 42.6328125 C15.97779022 43.39453262 15.81495544 44.15625275 15.64718628 44.9410553 C15.31072693 46.51551828 14.9742913 48.08998632 14.63787842 49.66445923 C11.2531622 65.49021289 7.6174991 81.22987245 3.74755859 96.94482422 C2.11472321 103.61801233 0.56303996 110.31018898 -1 117 C-9.58 117 -18.16 117 -27 117 C-25.78091791 111.51413061 -24.55651104 106.03193743 -23.30078125 100.5546875 C-22.97914849 99.15039479 -22.65753471 97.74609773 -22.3359375 96.34179688 C-22.16932617 95.61468506 -22.00271484 94.88757324 -21.83105469 94.13842773 C-19.03410169 81.93007028 -16.25291917 69.71837025 -13.5 57.5 C-11.08187486 46.77875844 -8.65980533 36.05842069 -6.22021484 25.34204102 C-5.86910536 23.79841441 -5.51866616 22.25463517 -5.16894531 20.71069336 C-4.68089288 18.55670181 -4.19035276 16.40329071 -3.69921875 14.25 C-3.41908936 13.01765625 -3.13895996 11.7853125 -2.8503418 10.515625 C-1.99654585 6.98571928 -0.9977031 3.49196084 0 0 Z " fill="#172D4D" transform="translate(670,359)"/>
<path d="M0 0 C6.63444549 -0.07660942 13.2687752 -0.12883271 19.90356445 -0.16479492 C22.1565375 -0.17980076 24.40948175 -0.20021191 26.66235352 -0.22631836 C29.91690214 -0.26306443 33.17106166 -0.27980894 36.42578125 -0.29296875 C37.41894852 -0.30845261 38.41211578 -0.32393646 39.43537903 -0.33988953 C48.43179579 -0.34201262 58.00375198 0.87828298 65 7 C69.02277627 12.3637017 68.72653413 18.58503384 68 25 C66.28862211 31.69270994 62.82919287 36.32276068 57 40 C48.71479548 44.08651287 40.32549312 44.14080681 31.2578125 44.09765625 C30.13430389 44.0962413 29.01079529 44.09482635 27.85324097 44.09336853 C24.27713317 44.08778664 20.70108877 44.07523741 17.125 44.0625 C14.69531341 44.05748266 12.26562583 44.05292016 9.8359375 44.04882812 C3.89060349 44.03782314 -2.05469372 44.02110301 -8 44 C-6.68422115 33.94242965 -4.91247218 24.05555701 -2.875 14.125 C-2.5946851 12.743564 -2.31473556 11.36205381 -2.03515625 9.98046875 C-1.36033528 6.65290328 -0.68190273 3.3261201 0 0 Z " fill="#FCFDFE" transform="translate(1733,192)"/>
<path d="M0 0 C1.10988281 -0.01417969 2.21976563 -0.02835937 3.36328125 -0.04296875 C6.7836836 0.19416843 9.49723443 0.96641499 12.6875 2.1875 C12.27564453 3.20070313 12.27564453 3.20070313 11.85546875 4.234375 C11.01100649 6.3695371 10.22956323 8.52998563 9.48828125 10.703125 C7.9705863 14.70302639 6.4222826 17.85080353 3.6875 21.1875 C-0.249678 22.27011348 -3.5759265 22.25253076 -7.6484375 22.16015625 C-13.98423744 22.20743834 -17.84009753 24.73017316 -22.234375 29.09765625 C-31.65896084 40.19369641 -34.08802269 54.6335146 -37.125 68.4375 C-37.53481043 70.26194295 -37.94561059 72.08616388 -38.35742188 73.91015625 C-39.35571268 78.333167 -40.33358403 82.75998462 -41.3125 87.1875 C-49.8925 87.1875 -58.4725 87.1875 -67.3125 87.1875 C-61.38885227 58.75399088 -55.0433827 30.43972452 -48.3125 2.1875 C-40.3925 2.1875 -32.4725 2.1875 -24.3125 2.1875 C-24.90170641 6.90115131 -25.49601607 11.52187757 -26.3125 16.1875 C-25.92320312 15.69121094 -25.53390625 15.19492187 -25.1328125 14.68359375 C-18.35479944 6.45314932 -10.97840613 0.06331261 0 0 Z " fill="#172E4D" transform="translate(530.3125,388.8125)"/>
<path d="M0 0 C6.97415644 -0.10178049 13.94811989 -0.17162496 20.92285156 -0.21972656 C23.29336709 -0.23978826 25.66383345 -0.26704426 28.03417969 -0.30175781 C31.44999351 -0.35051418 34.86515055 -0.37302399 38.28125 -0.390625 C39.33364868 -0.41127014 40.38604736 -0.43191528 41.47033691 -0.45318604 C47.83552743 -0.45510828 52.71693182 0.2741091 58 4 C62.33003362 8.55208663 63.36089595 12.34811059 63.28125 18.4609375 C62.48050824 25.68985612 59.14302237 31.9738645 54 37 C44.13198042 44.72663725 32.18500493 46.17673075 20.00390625 46.09765625 C19.17036118 46.0962413 18.3368161 46.09482635 17.47801208 46.09336853 C14.83947014 46.08781168 12.20101591 46.0752674 9.5625 46.0625 C7.76367311 46.05747942 5.96484487 46.05291749 4.16601562 46.04882812 C-0.22268958 46.03785643 -4.61132996 46.02062196 -9 46 C-8.28176003 40.53818402 -7.27333004 35.17756993 -6.15234375 29.78515625 C-5.97619034 28.92941513 -5.80003693 28.07367401 -5.61854553 27.19200134 C-5.06017429 24.48175525 -4.49888408 21.77212346 -3.9375 19.0625 C-3.55644702 17.21553473 -3.17558567 15.3685299 -2.79492188 13.52148438 C-1.86549745 9.0138624 -0.9334562 4.5067887 0 0 Z " fill="#FAFBFC" transform="translate(1350,117)"/>
<path d="M0 0 C5.95905361 -0.04971295 11.91798449 -0.0858671 17.87719727 -0.10986328 C19.90130722 -0.11987483 21.92540289 -0.1334881 23.94946289 -0.15087891 C26.87129256 -0.17534141 29.79292978 -0.18653184 32.71484375 -0.1953125 C34.05602516 -0.21079636 34.05602516 -0.21079636 35.42430115 -0.22659302 C42.35591164 -0.22781028 49.74909312 -0.07687667 55.4375 4.3125 C59.13741308 8.19289664 60.08658433 11.05792704 60.375 16.3125 C60.21791259 22.60646903 57.66502947 26.96496398 53.75 31.75 C41.58656998 41.70189729 26.14877275 40.26371791 11.3125 40.125 C9.43555165 40.11494984 7.55859809 40.10582759 5.68164062 40.09765625 C1.12096327 40.07580469 -3.4394598 40.0413871 -8 40 C-6.61283904 31.431381 -5.07525276 22.89909005 -3.4375 14.375 C-3.21642578 13.20582031 -2.99535156 12.03664062 -2.76757812 10.83203125 C-2.55423828 9.71957031 -2.34089844 8.60710937 -2.12109375 7.4609375 C-1.9295874 6.45853027 -1.73808105 5.45612305 -1.54077148 4.42333984 C-1 2 -1 2 0 0 Z " fill="#FAFBFC" transform="translate(1748,117)"/>
<path d="M0 0 C4.2358222 2.65080486 6.8682853 5.73477003 8.4375 10.5 C9.98804183 21.55714254 7.97975074 31.59842485 1.828125 40.9453125 C-2.81228331 46.71389347 -7.50459794 50.00166115 -14.90234375 50.91015625 C-21.38638366 51.18003625 -26.7000547 51.05121704 -32.01171875 47.0703125 C-34.58020635 44.46947619 -36.00339051 41.80531212 -37.5625 38.5 C-37.8925 37.84 -38.2225 37.18 -38.5625 36.5 C-39.52242232 25.86701432 -37.3476351 15.90312886 -30.5625 7.5 C-22.07109135 -1.07598443 -11.98546354 -5.17918692 0 0 Z " fill="#FAFCFC" transform="translate(601.5625,408.5)"/>
<path d="M0 0 C4.36464562 1.87056241 7.36016566 4.69652934 9.640625 8.85546875 C12.80056264 18.26247206 10.59078751 28.62773964 6.48828125 37.37890625 C2.74834546 43.85643192 -2.28627509 48.97042503 -9.51171875 51.37890625 C-23.87481101 52.65643669 -23.87481101 52.65643669 -29.890625 48.05078125 C-34.31383478 43.48901309 -36.77985698 38.78476631 -36.94921875 32.37890625 C-36.2742994 20.88751622 -32.65901229 12.07283282 -24.453125 3.88671875 C-17.23288434 -1.72095307 -8.72662285 -2.15790518 0 0 Z " fill="#FAFBFC" transform="translate(250.51171875,407.62109375)"/>
<path d="M0 0 C1.51031821 2.76239384 2.34654066 5.13192792 2.82202148 8.23925781 C2.95233261 9.06822571 3.08264374 9.8971936 3.21690369 10.75128174 C3.35028641 11.64289001 3.48366913 12.53449829 3.62109375 13.453125 C3.83923485 14.85265411 3.83923485 14.85265411 4.06178284 16.28045654 C4.5266662 19.2693682 4.98256912 22.25955876 5.4375 25.25 C6.03687872 29.15158585 6.64039899 33.05251501 7.24609375 36.953125 C7.46536026 38.37292664 7.46536026 38.37292664 7.6890564 39.82141113 C8.79209317 46.88446274 10.06912536 53.89930357 11.46899414 60.90917969 C12 64 12 64 12 68 C-4.17 68 -20.34 68 -37 68 C-35.28297517 63.70743792 -33.35449428 59.69262985 -31.1875 55.625 C-30.79860596 54.89240967 -30.40971191 54.15981934 -30.0090332 53.4050293 C-26.14059412 46.17149078 -22.09397651 39.04100775 -18.03686523 31.91210938 C-13.48930196 23.90871794 -9.06522895 15.84242808 -4.6940918 7.74145508 C-4.22269775 6.87029053 -3.75130371 5.99912598 -3.265625 5.1015625 C-2.85086914 4.33150879 -2.43611328 3.56145508 -2.00878906 2.76806641 C-1 1 -1 1 0 0 Z " fill="#F8FAFC" transform="translate(1576,132)"/>
<path d="M0 0 C0.66 0 1.32 0 2 0 C3.11272369 6.9220603 4.21894864 13.84514487 5.32324219 20.76855469 C5.940935 24.63585881 6.56386428 28.50231061 7.1869812 32.3687439 C7.74014935 35.80661166 8.28990726 39.24501995 8.83905029 42.68353271 C9.11245276 44.3909886 9.38722752 46.09822534 9.66339111 47.80523682 C10.05526309 50.22896766 10.44221437 52.65343883 10.828125 55.078125 C10.94668854 55.80428009 11.06525208 56.53043518 11.18740845 57.27859497 C11.76615432 60.94767768 12 64.25692286 12 68 C-3.84 68 -19.68 68 -36 68 C-34.67604358 64.02813075 -33.65526406 61.07817049 -31.70703125 57.55078125 C-31.24901123 56.71603271 -30.79099121 55.88128418 -30.3190918 55.02124023 C-29.8219165 54.12735596 -29.32474121 53.23347168 -28.8125 52.3125 C-28.29147705 51.36640869 -27.7704541 50.42031738 -27.23364258 49.44555664 C-25.49525049 46.29358873 -23.74858231 43.14632547 -22 40 C-21.36674805 38.85950195 -20.73349609 37.71900391 -20.08105469 36.54394531 C-14.91623472 27.24359535 -14.91623472 27.24359535 -12.34106445 22.62817383 C-8.15708999 15.12201571 -4.05495314 7.57642095 0 0 Z " fill="#F8FAFB" transform="translate(1178,132)"/>
<path d="M0 0 C0.99 0 1.98 0 3 0 C3 74.58 3 149.16 3 226 C-294.99 226 -592.98 226 -900 226 C-900 225.67 -900 225.34 -900 225 C-602.67 225 -305.34 225 1 225 C0.67 185.4 0.34 145.8 0 105 C-0.07330452 34.62765957 -0.07330452 34.62765957 0 0 Z " fill="#1A3F79" transform="translate(994,65)"/>
<path d="M0 0 C7.80424863 4.58946105 13.55347455 10.93195156 16.375 19.5625 C18.55641125 28.92698688 18.35944325 38.1704615 13.375 46.5625 C8.66373705 52.9675962 3.88354619 57.79110527 -3.625 60.5625 C-4.553125 60.975 -5.48125 61.3875 -6.4375 61.8125 C-15.43852252 63.93038765 -24.75160526 62.9232125 -32.81640625 58.30859375 C-41.2982241 52.40190086 -46.09953675 44.52167147 -48.625 34.5625 C-50.01664727 25.1493353 -46.79290963 16.21389072 -41.359375 8.6015625 C-31.20636604 -3.33508316 -14.16535953 -6.49621584 0 0 Z M-38.01171875 15.26953125 C-41.96619776 21.63832377 -41.49113848 29.36747245 -40.625 36.5625 C-38.3242422 44.33010265 -33.7922788 49.62095384 -26.8203125 53.58984375 C-20.40957652 56.47600497 -12.77102014 56.94878537 -6.1015625 54.71875 C0.20176127 51.53481854 5.29590698 46.58856977 8.54296875 40.30078125 C10.59822161 33.53678006 10.76944623 23.50610037 7.875 17 C3.78732254 10.51708698 -2.0343966 6.02840265 -9.40625 3.99609375 C-21.14778961 1.70153231 -30.57711422 6.11763778 -38.01171875 15.26953125 Z " fill="#1E304A" transform="translate(1521.625,363.4375)"/>
<path d="M0 0 C33.19879481 -0.04406575 66.39756131 -0.08100373 99.59637656 -0.10213066 C103.51306294 -0.10463216 107.42974926 -0.1072208 111.34643555 -0.10986328 C112.12619907 -0.1103879 112.9059626 -0.11091252 113.70935532 -0.11145304 C126.34616422 -0.12016295 138.98295497 -0.13593614 151.6197531 -0.15430559 C164.57987867 -0.17298835 177.53999473 -0.18411328 190.50013322 -0.18817699 C198.50149805 -0.19092543 206.50281161 -0.1996157 214.50416066 -0.21583293 C220.63275036 -0.227624 226.76130072 -0.22891546 232.88990021 -0.22621536 C235.40907037 -0.22676766 237.9282424 -0.23077328 240.44740105 -0.23841095 C243.87522916 -0.24829777 247.3028343 -0.24599182 250.73066711 -0.24050903 C251.7374661 -0.24633472 252.74426508 -0.2521604 253.78157312 -0.25816262 C255.1542822 -0.25218947 255.1542822 -0.25218947 256.55472279 -0.24609566 C257.34643967 -0.2468551 258.13815656 -0.24761454 258.95386487 -0.24839699 C261 0 261 0 264 2 C232.57239692 2.03207271 201.14640485 1.95206556 169.71919489 1.79807091 C163.78837609 1.76924955 157.85755138 1.741697 151.92672729 1.71398926 C140.77930851 1.66172823 129.6318952 1.60838529 118.4844836 1.5546174 C105.75814911 1.49328922 93.03180875 1.43322233 80.30546784 1.37324238 C54.20363858 1.25019573 28.10181778 1.12546063 2 1 C2.33 23.44 2.66 45.88 3 69 C88.14 69.33 173.28 69.66 261 70 C259 72 259 72 257.09088743 72.24839699 C256.30486634 72.24763755 255.51884526 72.24687811 254.70900536 72.24609566 C253.8028238 72.25007775 252.89664225 72.25405985 251.96300066 72.25816262 C250.96107073 72.25233693 249.9591408 72.24651125 248.92684937 72.24050903 C247.86750045 72.24221788 246.80815154 72.24392673 245.71670115 72.24568737 C242.14358624 72.2489989 238.5706564 72.23795121 234.99755859 72.22705078 C232.44557194 72.22648703 229.89358497 72.22680253 227.34159851 72.22793579 C221.83530673 72.2283922 216.32907525 72.22269528 210.82279587 72.21146011 C202.86159086 72.1952264 194.90040879 72.1899993 186.93918903 72.18748413 C174.02357399 72.18310368 161.10798416 72.16978509 148.19238281 72.15087891 C135.64388149 72.13252916 123.09538702 72.11836823 110.546875 72.10986328 C109.77376859 72.10933783 109.00066218 72.10881239 108.20412831 72.10827102 C104.32579517 72.105661 100.44746198 72.10313357 96.56912875 72.10064721 C64.37939682 72.0799038 32.18971177 72.04302818 0 72 C0 48.24 0 24.48 0 0 Z " fill="#2C4E7D" transform="translate(156,123)"/>
<path d="M0 0 C91.83352911 -0.04026156 91.83352911 -0.04026156 120.24279785 -0.05130005 C121.25599878 -0.05169472 122.2691997 -0.05208938 123.31310368 -0.05249601 C157.41198226 -0.0657426 191.51086111 -0.07624547 225.60974121 -0.08468628 C226.72232941 -0.08496239 227.83491761 -0.08523851 228.98122061 -0.08552299 C253.15930394 -0.09150846 277.33738735 -0.09704887 301.51547089 -0.10213066 C313.37196759 -0.10462539 325.22846427 -0.10721849 337.08496094 -0.10986328 C338.26484059 -0.1101248 339.44472025 -0.11038632 340.66035383 -0.11065576 C378.9208682 -0.11918226 417.18137668 -0.13420771 455.44188748 -0.15259444 C494.75132439 -0.17145099 534.06075803 -0.18376888 573.37019939 -0.18782998 C578.91919849 -0.18840631 584.46819757 -0.18905759 590.01719666 -0.18975449 C591.10934615 -0.18988933 592.20149565 -0.19002418 593.32674058 -0.19016311 C610.92504687 -0.19252884 628.52334308 -0.20181116 646.12164525 -0.21366407 C663.80314026 -0.22542598 681.48462526 -0.22993911 699.16612405 -0.22700275 C709.67794275 -0.22547872 720.18972486 -0.22956274 730.70153697 -0.24159509 C737.71862888 -0.24908021 744.73569676 -0.24933764 751.75279032 -0.24366363 C755.7540934 -0.2406367 759.75532713 -0.24080395 763.75662285 -0.24976636 C767.39670854 -0.25785792 771.03667074 -0.25674136 774.67675452 -0.24827995 C776.60281236 -0.24617761 778.52887329 -0.2538981 780.45491517 -0.26201695 C786.66213716 -0.23776501 792.06150858 0.15394016 798 2 C798 2.33 798 2.66 798 3 C797.4343854 2.92933727 796.86877081 2.85867453 796.28601637 2.78587051 C789.02083325 1.96056332 781.83750906 1.8580695 774.53108978 1.86857224 C773.18298393 1.86691962 771.83487855 1.86483199 770.48677397 1.86235213 C766.79030995 1.85681431 763.09386923 1.85745256 759.3974024 1.85912972 C755.37296361 1.85986329 751.34853126 1.85483216 747.32409525 1.8505547 C739.34627533 1.84298825 731.36846211 1.84078234 723.39063897 1.84022565 C713.83398961 1.83931074 704.27734642 1.83263967 694.72069972 1.82587883 C671.63194869 1.80983401 648.54319833 1.80391842 625.45444273 1.79913008 C614.53679834 1.79679381 603.61915447 1.79319125 592.70151049 1.7894347 C555.3408712 1.776604 517.9802322 1.76588167 480.61959076 1.7624321 C478.27539592 1.76221047 475.93120108 1.76198868 473.58700624 1.76176675 C471.23714028 1.76154611 468.88727431 1.76132562 466.53740835 1.7611053 C461.82311598 1.76066274 457.10882362 1.76021563 452.39453125 1.75976562 C450.64123181 1.75960154 450.64123181 1.75960154 448.85251219 1.75943414 C410.90789485 1.75579932 372.96329656 1.7398608 335.01868653 1.71657526 C294.91356013 1.69200874 254.80844463 1.67826086 214.70331049 1.67706418 C210.30589453 1.67689272 205.90847858 1.67667729 201.51106262 1.67642975 C200.42827249 1.67637398 199.34548237 1.67631821 198.22988042 1.67626075 C180.77040976 1.67510792 163.31095862 1.66406686 145.85149456 1.64954269 C128.32590756 1.63521478 110.80034571 1.63191977 93.27475446 1.63998267 C82.85047825 1.64445554 72.42628291 1.6405124 62.00201724 1.62474416 C55.05129039 1.61504929 48.10062067 1.61611934 41.14989444 1.62618039 C37.18172719 1.63161223 33.21371609 1.63215621 29.2455613 1.61967167 C25.64266108 1.60842999 22.04004576 1.61074819 18.43715596 1.62433875 C16.51650616 1.62796075 14.59584634 1.61672029 12.6752286 1.60504746 C10.98663146 1.61554462 10.98663146 1.61554462 9.26392126 1.62625384 C8.28816014 1.62600964 7.31239903 1.62576544 6.30706939 1.62551384 C5.54573649 1.74909427 4.78440359 1.8726747 4 2 C1.6376801 5.54347985 1.74190891 7.04311259 1.7215271 11.24516296 C1.71036362 12.55348083 1.69920013 13.86179871 1.68769836 15.20976257 C1.68533331 16.66287203 1.68315767 18.1159818 1.68115234 19.5690918 C1.67185595 21.09661389 1.66168771 22.6241309 1.65071106 24.15164185 C1.62336438 28.30214745 1.60824787 32.45261903 1.59528303 36.60319114 C1.57967287 40.9394241 1.55287594 45.27558736 1.5272522 49.61177063 C1.48042688 57.82460737 1.44370096 66.03745717 1.41057932 74.25035936 C1.37238442 83.59974992 1.32296739 92.94907054 1.27259517 102.29840219 C1.16921951 121.53221697 1.07997746 140.76607441 1 160 C0.67 160 0.34 160 0 160 C0 107.2 0 54.4 0 0 Z " fill="#E9F9FE" transform="translate(126,97)"/>
<path d="M0 0 C81.84 0 163.68 0 248 0 C248 0.33 248 0.66 248 1 C166.82 1 85.64 1 2 1 C2 23.77 2 46.54 2 70 C85.49 70 168.98 70 255 70 C251.88475034 72.07683311 251.22541783 72.249603 247.69527912 72.24609566 C246.81149029 72.25007775 245.92770146 72.25405985 245.01713115 72.25816262 C244.0453507 72.25233693 243.07357026 72.24651125 242.07234192 72.24050903 C241.04072345 72.24221788 240.00910498 72.24392673 238.94622535 72.24568737 C235.47295107 72.24899413 231.99986795 72.23795898 228.52661133 72.22705078 C226.04344182 72.22648692 223.56027198 72.22680273 221.07710266 72.22793579 C215.7225223 72.22839193 210.36800199 72.22270163 205.01343727 72.21146011 C197.27161182 72.19521729 189.52980995 72.18999836 181.78796931 72.18748413 C169.22785486 72.18310511 156.66776637 72.16979041 144.10766602 72.15087891 C131.9055189 72.13252545 119.70337883 72.11836633 107.5012207 72.10986328 C106.37331863 72.10907511 106.37331863 72.10907511 105.22263066 72.10827102 C101.45045665 72.10566097 97.67828259 72.10313355 93.9061085 72.10064721 C62.60404933 72.07990827 31.30203842 72.04303505 0 72 C0 48.24 0 24.48 0 0 Z " fill="#335480" transform="translate(658,123)"/>
<path d="M0 0 C3.526875 -0.103125 7.05375 -0.20625 10.6875 -0.3125 C11.79053467 -0.35802002 12.89356934 -0.40354004 14.0300293 -0.45043945 C21.24675708 -0.55275289 21.24675708 -0.55275289 25.140625 2.3046875 C27.50141788 5.72684524 28.07298781 7.83969476 28 12 C26.02061533 15.74669241 24.52983947 17.64677369 21 20 C21.48210937 20.59167969 21.96421875 21.18335938 22.4609375 21.79296875 C23.40839844 22.97826172 23.40839844 22.97826172 24.375 24.1875 C25.00148438 24.96480469 25.62796875 25.74210937 26.2734375 26.54296875 C27.97807134 28.96879382 29.01987906 31.21309045 30 34 C26.78001807 34.72285309 24.1895451 34.93661245 21 34 C18.06014412 30.64724302 16.11580531 26.90339706 14 23 C11.86132495 20.49152482 11.86132495 20.49152482 7 20 C7 24.62 7 29.24 7 34 C4.69 34 2.38 34 0 34 C0 22.78 0 11.56 0 0 Z " fill="#1C2F49" transform="translate(1492,376)"/>
<path d="M0 0 C0.33 0 0.66 0 1 0 C1 11.22 1 22.44 1 34 C7.29384766 33.89171875 7.29384766 33.89171875 13.71484375 33.78125 C51.54001101 33.16620976 89.35734744 32.91020448 127.1875 32.9375 C128.28166859 32.93820873 129.37583717 32.93891747 130.50316238 32.93964767 C146.1896021 32.95011838 161.87602218 32.97101206 177.56244659 32.99479675 C193.60575644 33.01908068 209.64906101 33.04173202 225.69238567 33.05341816 C232.08671262 33.05837003 238.4810074 33.06817061 244.87532139 33.08184814 C248.79887716 33.08927575 252.72242852 33.09261529 256.64599037 33.0948143 C258.46376115 33.09669118 260.28153107 33.10030174 262.09929466 33.10574722 C264.5706118 33.11292398 267.04185786 33.11400288 269.51318359 33.11352539 C270.2353667 33.11712035 270.9575498 33.12071531 271.70161724 33.12441921 C274.75215361 33.11806581 277.0803943 32.9732019 280 32 C280.33 25.07 280.66 18.14 281 11 C156.755 10.505 156.755 10.505 30 10 C30 9.67 30 9.34 30 9 C113.49 9 196.98 9 283 9 C283 17.58 283 26.16 283 35 C189.61 35 96.22 35 0 35 C0 23.45 0 11.9 0 0 Z " fill="#D6E8F8" transform="translate(330,222)"/>
<path d="M0 0 C52.47 0 104.94 0 159 0 C159 44.22 159 88.44 159 134 C158.67 134 158.34 134 158 134 C157.67 90.44 157.34 46.88 157 2 C152.05 2.495 152.05 2.495 147 3 C144.81588512 3.07829525 142.63006646 3.12220936 140.44454956 3.12025452 C139.2444072 3.12162918 138.04426483 3.12300385 136.80775452 3.12442017 C135.52525314 3.12082489 134.24275177 3.11722961 132.92138672 3.11352539 C131.53076683 3.11324274 130.14014678 3.11340278 128.74952698 3.1139679 C125.0043575 3.11425281 121.25922056 3.10840575 117.51405859 3.10139394 C113.58897412 3.09510927 109.66388877 3.09455258 105.73880005 3.09336853 C98.3194808 3.09027022 90.90017642 3.08207718 83.48086369 3.07201904 C75.02855766 3.06081116 66.57625089 3.05533571 58.12393928 3.05032361 C40.74928427 3.0398932 23.37464371 3.022323 6 3 C6.66 5.64 7.32 8.28 8 11 C8.66 11 9.32 11 10 11 C14.80288651 20.65045104 15 27.96691036 15 39 C51.63 39 88.26 39 126 39 C126 39.33 126 39.66 126 40 C89.04 40 52.08 40 14 40 C13.34 35.05 12.68 30.1 12 25 C9.53388074 17.4646356 6.90807391 11.18886385 2.234375 4.8046875 C1 3 1 3 0 0 Z " fill="#1E437A" transform="translate(469,123)"/>
<path d="M0 0 C4.01684726 2.93915653 6.95784056 6.06102168 8.5625 10.875 C8.5625 13.515 8.5625 16.155 8.5625 18.875 C-4.6375 18.875 -17.8375 18.875 -31.4375 18.875 C-28.42231199 9.82943596 -26.16515222 5.39325281 -18.75 -0.125 C-12.54423502 -1.99843848 -6.16381909 -2.01724988 0 0 Z " fill="#F8FBFC" transform="translate(1164.4375,407.125)"/>
<path d="M0 0 C0.99 0 1.98 0 3 0 C3 74.58 3 149.16 3 226 C2.34 225.67 1.68 225.34 1 225 C0.82431549 207.18758202 0.65827318 189.3750809 0.5 171.5625 C0.49405146 170.89427719 0.48810292 170.22605438 0.48197412 169.5375824 C0.11307135 128.0244907 -0.0935538 86.51505451 -0.0625 45 C-0.06164398 43.84715137 -0.06078796 42.69430275 -0.05990601 41.50651932 C-0.04884057 27.6709957 -0.02928885 13.83549683 0 0 Z " fill="#2C4E7D" transform="translate(994,65)"/>
<path d="M0 0 C20.46 0 40.92 0 62 0 C62 0.33 62 0.66 62 1 C55.25170225 2.02861712 48.66256326 2.12976314 41.84375 2.09765625 C40.70087524 2.0962413 39.55800049 2.09482635 38.38049316 2.09336853 C34.75363475 2.08780025 31.12683955 2.07525362 27.5 2.0625 C25.0312509 2.0574809 22.56250082 2.05291871 20.09375 2.04882812 C14.06247867 2.03784121 8.03124385 2.02113485 2 2 C2 4.31 2 6.62 2 9 C85.16 9 168.32 9 254 9 C254 9.33 254 9.66 254 10 C170.18 10 86.36 10 0 10 C0 6.7 0 3.4 0 0 Z " fill="#274877" transform="translate(359,221)"/>
<path d="M0 0 C57.09 0 114.18 0 173 0 C173 11.55 173 23.1 173 35 C172.67 35 172.34 35 172 35 C172 23.78 172 12.56 172 1 C115.9 1 59.8 1 2 1 C2.33 11.56 2.66 22.12 3 33 C2.34 34.32 1.68 35.64 1 37 C-9.23 37 -19.46 37 -30 37 C-30 36.67 -30 36.34 -30 36 C-20.1 36 -10.2 36 0 36 C0 24.12 0 12.24 0 0 Z " fill="#1B437C" transform="translate(156,222)"/>
<path d="M0 0 C0.33 0.66 0.66 1.32 1 2 C-130.175 1.505 -130.175 1.505 -264 1 C-264 0.67 -264 0.34 -264 0 C-231.2344801 -0.15041627 -198.4689415 -0.29544658 -165.70336624 -0.4332476 C-161.83560988 -0.44951871 -157.96785371 -0.46583443 -154.10009766 -0.48217773 C-153.33009291 -0.48543066 -152.56008816 -0.48868358 -151.76674993 -0.49203508 C-139.29686017 -0.5448212 -126.82698923 -0.60122239 -114.35712151 -0.6589582 C-101.56310713 -0.7181144 -88.76908024 -0.77338888 -75.9750334 -0.82505554 C-68.07962851 -0.85706231 -60.184249 -0.89210134 -52.28887506 -0.93101191 C-46.23600332 -0.96051789 -40.18312239 -0.98462469 -34.13021851 -1.00670624 C-31.64616756 -1.01661631 -29.16212293 -1.02828583 -26.67808914 -1.04183006 C-23.29079355 -1.06003828 -19.90353227 -1.07195884 -16.51620483 -1.08229065 C-15.52981722 -1.08909444 -14.54342961 -1.09589823 -13.52715147 -1.10290819 C-4.33805875 -1.11796681 -4.33805875 -1.11796681 0 0 Z " fill="#C7DDFC" transform="translate(420,122)"/>
<path d="M0 0 C0.66 0.66 1.32 1.32 2 2 C1.59185426 10.44278606 0.07080042 17.92919958 -6 24 C-6.61875 25.3921875 -6.61875 25.3921875 -7.25 26.8125 C-9.18213733 30.33175014 -11.20250561 32.13492011 -14.2890625 34.609375 C-16.17237376 36.08518183 -16.17237376 36.08518183 -18.3125 38.375 C-20 40 -20 40 -22 40 C-22.33 40.99 -22.66 41.98 -23 43 C-23.99 43 -24.98 43 -26 43 C-26.33 43.99 -26.66 44.98 -27 46 C-28.60812062 46.7705578 -30.22725701 47.52530384 -31.890625 48.16796875 C-34.99632046 49.39299307 -37.97840368 50.87769129 -40.984375 52.328125 C-43 53 -43 53 -46 52 C-43.29378651 50.19585767 -40.59665844 48.85623082 -37.65625 47.48901367 C-21.42418802 39.82155996 -9.5680697 28.91335486 -2.96484375 11.8828125 C-1.64872359 7.9504373 -0.74757615 4.0776881 0 0 Z " fill="#2E5083" transform="translate(977,165)"/>
<path d="M0 0 C0.99 0 1.98 0 3 0 C6.24977883 6.81153642 6.10577134 15.42462279 4.34765625 22.69921875 C-0.00869081 33.4124671 -8.70535242 39.38640602 -18.375 44.9375 C-21 46 -21 46 -24 45 C-23.0409375 44.8453125 -23.0409375 44.8453125 -22.0625 44.6875 C-21.0415625 44.3471875 -21.0415625 44.3471875 -20 44 C-19.67 43.01 -19.34 42.02 -19 41 C-17.2578125 39.83203125 -17.2578125 39.83203125 -15.125 38.8125 C-14.42632812 38.46832031 -13.72765625 38.12414062 -13.0078125 37.76953125 C-11 37 -11 37 -8 37 C-7.67 35.68 -7.34 34.36 -7 33 C-6.34 33 -5.68 33 -5 33 C-4.71253906 32.41089844 -4.42507813 31.82179687 -4.12890625 31.21484375 C-3 29 -3 29 -1.96484375 27.31640625 C2.57459463 19.56656658 2.05249385 10.74022551 2 2 C1.34 2 0.68 2 0 2 C0 1.34 0 0.68 0 0 Z " fill="#2A4D84" transform="translate(448,146)"/>
<path d="M0 0 C44.55 0 89.1 0 135 0 C135 0.33 135 0.66 135 1 C134.32247272 1.00238835 133.64494543 1.00477671 132.94688702 1.00723743 C116.47229775 1.06633571 99.99787429 1.14185232 83.52344799 1.23571491 C75.55657968 1.28070867 67.58975642 1.32011497 59.62280273 1.34643555 C52.67998872 1.36938676 45.73731688 1.40275228 38.79461557 1.44870156 C35.11740613 1.47267288 31.44033783 1.49137591 27.76305199 1.49761391 C23.66108439 1.50476723 19.55960904 1.5351677 15.45776367 1.56762695 C14.23425201 1.56619186 13.01074036 1.56475677 11.75015259 1.5632782 C10.63536026 1.57581635 9.52056793 1.58835449 8.37199402 1.60127258 C7.40134601 1.60588155 6.43069799 1.61049051 5.43063641 1.61523914 C2.61994903 2.06016068 1.73530501 2.80140684 0 5 C0 3.35 0 1.7 0 0 Z " fill="#214989" transform="translate(158,124)"/>
<path d="M0 0 C0.66 0.33 1.32 0.66 2 1 C2.19272034 5.4836045 2.3713676 9.9674845 2.53710938 14.45214844 C2.59543502 15.9770401 2.65757438 17.50179094 2.72363281 19.02636719 C2.81803239 21.22044224 2.89861231 23.41466149 2.9765625 25.609375 C3.00875885 26.2886908 3.0409552 26.96800659 3.0741272 27.66790771 C3.20013276 31.66800241 2.86148768 33.27702464 1 37 C-9.23 37 -19.46 37 -30 37 C-30 36.67 -30 36.34 -30 36 C-20.1 36 -10.2 36 0 36 C0 24.12 0 12.24 0 0 Z " fill="#244980" transform="translate(156,222)"/>
<path d="M0 0 C1.79133978 -0.05391993 3.58313899 -0.09275571 5.375 -0.125 C6.37273437 -0.14820313 7.37046875 -0.17140625 8.3984375 -0.1953125 C11 0 11 0 13 2 C13.1875 4.5625 13.1875 4.5625 13 7 C12 8 12 8 9.27734375 8.09765625 C7.62412109 8.08025391 7.62412109 8.08025391 5.9375 8.0625 C4.83277344 8.05347656 3.72804688 8.04445313 2.58984375 8.03515625 C1.30787109 8.01775391 1.30787109 8.01775391 0 8 C0 5.36 0 2.72 0 0 Z " fill="#F3F9FB" transform="translate(1499,382)"/>
<path d="M0 0 C6.6 0 13.2 0 20 0 C16.71508627 2.18994248 15.16904361 2.35277339 11.3125 2.625 C10.31863281 2.69976562 9.32476562 2.77453125 8.30078125 2.8515625 C7.16189453 2.92503906 7.16189453 2.92503906 6 3 C6.66 5.64 7.32 8.28 8 11 C8.66 11 9.32 11 10 11 C14.07877462 19.03501094 14.07877462 19.03501094 13.75 23.0625 C13.37875 24.0215625 13.37875 24.0215625 13 25 C11.70189173 22.41345214 10.42273674 19.81889521 9.16015625 17.21484375 C8.46110094 15.78898236 7.76187746 14.36320341 7.0625 12.9375 C6.71509766 12.21755859 6.36769531 11.49761719 6.00976562 10.75585938 C5.66751953 10.06169922 5.32527344 9.36753906 4.97265625 8.65234375 C4.66593994 8.02320068 4.35922363 7.39405762 4.04321289 6.74584961 C3.04611464 4.91176688 3.04611464 4.91176688 1.37670898 3.39672852 C0 2 0 2 0 0 Z " fill="#244A84" transform="translate(469,123)"/>
<path d="M0 0 C0.6640625 1.77734375 0.6640625 1.77734375 1 4 C-1.59596666 8.53806202 -5.4910726 11.50822433 -10 14 C-10.680625 14.721875 -11.36125 15.44375 -12.0625 16.1875 C-14 18 -14 18 -18 18 C-18.66 19.32 -19.32 20.64 -20 22 C-22.31 22 -24.62 22 -27 22 C-24.23801412 19.84338089 -21.43344676 18.07856481 -18.375 16.375 C-11.27238477 12.16604283 -4.77301368 6.78351141 0 0 Z " fill="#2C4F85" transform="translate(470,192)"/>
<path d="M0 0 C23.76 0 47.52 0 72 0 C71.67 1.32 71.34 2.64 71 4 C71 3.01 71 2.02 71 1 C62.05525175 1.10748463 53.1105875 1.22011465 44.16598797 1.33933926 C40.0127852 1.39453599 35.85957535 1.44795082 31.70629883 1.49731445 C27.6992001 1.54500591 23.69218686 1.59735049 19.6851902 1.65294075 C18.1553847 1.67334263 16.62555577 1.69205929 15.09570885 1.70907402 C12.95523988 1.73316605 10.81493207 1.76321392 8.67456055 1.79467773 C7.45544479 1.81022202 6.23632904 1.8257663 4.98027039 1.84178162 C1.94558057 1.87064557 1.94558057 1.87064557 -1 3 C-0.67 2.01 -0.34 1.02 0 0 Z " fill="#D1DEED" transform="translate(1124,235)"/>
<path d="M0 0 C4.80208391 0.43655308 9.46393757 2.42868426 14 4 C14 4.66 14 5.32 14 6 C15.26070312 6.34417969 15.26070312 6.34417969 16.546875 6.6953125 C20.6219143 8.23497667 23.74705871 10.32943038 27.25 12.875 C27.87390625 13.30941406 28.4978125 13.74382812 29.140625 14.19140625 C32.29521999 16.45537205 34.71038434 18.2531437 36 22 C32.72160129 20.20216845 29.92622696 18.12753451 27.0625 15.75 C18.55401407 9.05665773 8.49856892 4.53997635 -2 2 C-1.34 1.34 -0.68 0.68 0 0 Z " fill="#325485" transform="translate(926,98)"/>
<path d="M0 0 C0.33 0 0.66 0 1 0 C1 11.55 1 23.1 1 35 C-8.57 35 -18.14 35 -28 35 C-28 34.34 -28 33.68 -28 33 C-27.21761963 33.00523682 -26.43523926 33.01047363 -25.62915039 33.01586914 C-22.10694167 33.03657106 -18.5847457 33.04963838 -15.0625 33.0625 C-13.21495117 33.07506836 -13.21495117 33.07506836 -11.33007812 33.08789062 C-9.5753418 33.09272461 -9.5753418 33.09272461 -7.78515625 33.09765625 C-6.70113525 33.10289307 -5.61711426 33.10812988 -4.50024414 33.11352539 C-2.05950052 33.28426897 -2.05950052 33.28426897 -1 32 C-0.84028023 29.62661361 -0.7407567 27.27881728 -0.68359375 24.90234375 C-0.66281265 24.19348526 -0.64203156 23.48462677 -0.62062073 22.75428772 C-0.55505402 20.48212695 -0.4962077 18.20984736 -0.4375 15.9375 C-0.39432151 14.40037817 -0.35070745 12.8632685 -0.30664062 11.32617188 C-0.19936551 7.5509041 -0.09811863 3.7755164 0 0 Z " fill="#EDFCFF" transform="translate(657,222)"/>
<path d="M0 0 C3.4899449 3.4899449 3.19767836 8.12501024 3.3125 12.875 C3.28574395 20.66101073 1.28440753 27.62666678 -1 35 C-2.12089903 31.62162599 -1.82136928 29.38465129 -1.0625 25.9375 C0.52875918 17.34042857 0.16390472 8.7051618 0 0 Z " fill="#D9E9F3" transform="translate(975,145)"/>
<path d="M0 0 C0.66 0 1.32 0 2 0 C1.13443944 5.41864624 -2.76646293 7.90413983 -7 11 C-10.22017854 12.94255608 -13.43346132 14.78370262 -17 16 C-17.99 15.67 -18.98 15.34 -20 15 C-19.360625 14.896875 -18.72125 14.79375 -18.0625 14.6875 C-17.0415625 14.3471875 -17.0415625 14.3471875 -16 14 C-15.67 13.01 -15.34 12.02 -15 11 C-13.2578125 9.83203125 -13.2578125 9.83203125 -11.125 8.8125 C-10.42632812 8.46832031 -9.72765625 8.12414062 -9.0078125 7.76953125 C-7 7 -7 7 -4 7 C-3.67 5.68 -3.34 4.36 -3 3 C-2.34 3 -1.68 3 -1 3 C-0.67 2.01 -0.34 1.02 0 0 Z " fill="#2C5085" transform="translate(444,176)"/>
<path d="M0 0 C0.61641357 0.32145996 1.23282715 0.64291992 1.86791992 0.97412109 C6.28626309 2.42130154 10.4903245 2.35704941 15.11328125 2.4140625 C16.08283249 2.43342865 17.05238373 2.4527948 18.05131531 2.4727478 C21.13828828 2.53237436 24.22529888 2.5788614 27.3125 2.625 C29.40952118 2.66319534 31.50652694 2.70224798 33.60351562 2.7421875 C38.73555131 2.83806209 43.86766043 2.92215577 49 3 C49 3.33 49 3.66 49 4 C32.5 4 16 4 -1 4 C-0.67 2.68 -0.34 1.36 0 0 Z " fill="#28384D" transform="translate(1057,267)"/>
<path d="M0 0 C0.66 0 1.32 0 2 0 C3.36752652 8.7521697 2.70757095 17.22612019 2 26 C1.34 26 0.68 26 0 26 C0 17.42 0 8.84 0 0 Z " fill="#284B7F" transform="translate(595,164)"/>
<path d="M0 0 C2 1 2 1 3.125 3.3125 C5.11352232 11.69270123 4.59851365 19.20322043 1 27 C-0.25189229 23.24432313 0.43164651 20.91532402 1 17 C1.08591666 13.9976902 1.06127844 11.00264368 1 8 C0.67 8 0.34 8 0 8 C0 5.36 0 2.72 0 0 Z " fill="#3C5C89" transform="translate(945,146)"/>
<path d="M0 0 C0.33 0 0.66 0 1 0 C1.37992882 3.34218632 1.23536171 4.66954796 -0.75 7.45703125 C-1.86375 8.62298828 -1.86375 8.62298828 -3 9.8125 C-3.7425 10.60269531 -4.485 11.39289063 -5.25 12.20703125 C-5.8275 12.79871094 -6.405 13.39039063 -7 14 C-7.66 13.67 -8.32 13.34 -9 13 C-7.59718164 8.53648705 -5.35914958 6.1911921 -2 3 C-1.34 2.01 -0.68 1.02 0 0 Z " fill="#294E84" transform="translate(944,170)"/>
<path d="M0 0 C12.87 0.495 12.87 0.495 26 1 C26 1.33 26 1.66 26 2 C25.31897217 2.01458252 24.63794434 2.02916504 23.9362793 2.04418945 C20.85277785 2.11862696 17.77036433 2.21530083 14.6875 2.3125 C13.61564453 2.33505859 12.54378906 2.35761719 11.43945312 2.38085938 C10.41142578 2.41630859 9.38339844 2.45175781 8.32421875 2.48828125 C7.37635498 2.51446533 6.42849121 2.54064941 5.4519043 2.56762695 C2.64839606 3.06200245 1.74403036 3.80655626 0 6 C-0.66 5.67 -1.32 5.34 -2 5 C-1.34 3.35 -0.68 1.7 0 0 Z " fill="#1E4888" transform="translate(472,190)"/>
<path d="M0 0 C1.8046875 0.19921875 1.8046875 0.19921875 4 1 C5.6328125 3.14453125 5.6328125 3.14453125 7.125 5.8125 C7.87136719 7.12154297 7.87136719 7.12154297 8.6328125 8.45703125 C9.08398438 9.29621094 9.53515625 10.13539063 10 11 C10.40992188 11.68449219 10.81984375 12.36898437 11.2421875 13.07421875 C12.17614364 15.44762274 11.84353652 16.63809774 11 19 C10.56300781 18.03900391 10.56300781 18.03900391 10.1171875 17.05859375 C7.64879799 11.85013664 5.12406103 7.55317227 1.13671875 3.375 C0 2 0 2 0 0 Z " fill="#2B4D7D" transform="translate(962,120)"/>
<path d="M0 0 C0.33 0.66 0.66 1.32 1 2 C0.1875 4.375 0.1875 4.375 -1 7 C-1.268125 7.66 -1.53625 8.32 -1.8125 9 C-3.46093504 11.77631164 -5.66712144 13.78990452 -8 16 C-6.42986223 10.03347646 -3.24970218 5.17090975 0 0 Z " fill="#1B2D44" transform="translate(1539,116)"/>
<path d="M0 0 C0.33 0 0.66 0 1 0 C1.054348 2.0622048 1.09294961 4.12482816 1.125 6.1875 C1.14820313 7.33605469 1.17140625 8.48460937 1.1953125 9.66796875 C1.00484152 12.91740372 0.39360127 15.08660521 -1 18 C-1.66 18 -2.32 18 -3 18 C-2.41509121 11.85845775 -1.45933748 5.99320151 0 0 Z " fill="#2F3E53" transform="translate(415,438)"/>
<path d="M0 0 C0.33 0.99 0.66 1.98 1 3 C-0.21424393 4.49144105 -1.44706045 5.96777403 -2.6875 7.4375 C-3.37199219 8.26121094 -4.05648438 9.08492187 -4.76171875 9.93359375 C-7.24022612 12.22177944 -8.69136813 12.68130516 -12 13 C-11.319375 12.34 -10.63875 11.68 -9.9375 11 C-6.43274653 7.50531766 -3.22778212 3.74869221 0 0 Z " fill="#DEECF7" transform="translate(449,174)"/>
<path d="M0 0 C0.66 0.33 1.32 0.66 2 1 C2 4.63 2 8.26 2 12 C0.02 12.99 0.02 12.99 -2 14 C-1.03644647 4.58997722 -1.03644647 4.58997722 0 0 Z " fill="#20324A" transform="translate(1678,230)"/>
<path d="M0 0 C4.99450818 2.42157972 8.98790554 6.36025202 12 11 C11.67 11.99 11.34 12.98 11 14 C10.38125 13.030625 9.7625 12.06125 9.125 11.0625 C7.34321154 7.97164638 7.34321154 7.97164638 5 7 C5 6.34 5 5.68 5 5 C4.360625 4.731875 3.72125 4.46375 3.0625 4.1875 C1 3 1 3 0 0 Z " fill="#294B7E" transform="translate(932,131)"/>
<path d="M0 0 C6.6 0 13.2 0 20 0 C20 0.33 20 0.66 20 1 C14.72 1 9.44 1 4 1 C3.67 2.32 3.34 3.64 3 5 C1.5 3.625 1.5 3.625 0 2 C0 1.34 0 0.68 0 0 Z " fill="#2F4C77" transform="translate(469,123)"/>
<path d="M0 0 C-0.66 4.62 -1.32 9.24 -2 14 C-4.61577816 8.76844369 -3.6207859 7.40261966 -2 2 C-3.65 2 -5.3 2 -7 2 C-4 0 -4 0 0 0 Z " fill="#29394B" transform="translate(455,459)"/>
<path d="M0 0 C2.60372901 3.90559351 3.09801246 7.33624058 3 12 C1.5625 15.0625 1.5625 15.0625 0 17 C-1.54897985 13.9020403 -0.83239539 10.73783448 -0.5625 7.375 C-0.51029297 6.66859375 -0.45808594 5.9621875 -0.40429688 5.234375 C-0.27458793 3.48920013 -0.13795046 1.74454275 0 0 Z " fill="#D6E7F4" transform="translate(453,151)"/>
<path d="M0 0 C0.66 0 1.32 0 2 0 C1.44449305 3.59905908 0.25112752 4.99909799 -2.5625 7.25 C-3.20316406 7.77078125 -3.84382813 8.2915625 -4.50390625 8.828125 C-4.99761719 9.21484375 -5.49132812 9.6015625 -6 10 C-6.33 9.01 -6.66 8.02 -7 7 C-6.01 7 -5.02 7 -4 7 C-3.67 5.68 -3.34 4.36 -3 3 C-2.34 3 -1.68 3 -1 3 C-0.67 2.01 -0.34 1.02 0 0 Z " fill="#24467C" transform="translate(444,176)"/>
<path d="M0 0 C0.99 0 1.98 0 3 0 C6.57142857 7.28571429 6.57142857 7.28571429 5 12 C2.91620491 8.15299368 1.50313376 4.09945571 0 0 Z " fill="#2D5086" transform="translate(477,136)"/>
<path d="M0 0 C5.41372419 3.09355668 8.49777237 6.88327027 12 12 C11.01 12.495 11.01 12.495 10 13 C7 9.25 7 9.25 7 7 C5.68 6.34 4.36 5.68 3 5 C3 4.34 3 3.68 3 3 C2.01 2.67 1.02 2.34 0 2 C0 1.34 0 0.68 0 0 Z " fill="#314F7D" transform="translate(438,132)"/>
<path d="M0 0 C-0.639375 0.12375 -1.27875 0.2475 -1.9375 0.375 C-2.618125 0.58125 -3.29875 0.7875 -4 1 C-4.33 1.66 -4.66 2.32 -5 3 C-7.31 3 -9.62 3 -12 3 C-12.33 2.34 -12.66 1.68 -13 1 C-8.59085217 -0.10228696 -4.51617599 -0.07654536 0 0 Z " fill="#D5DFE7" transform="translate(1510,367)"/>
<path d="M0 0 C-3.40219265 2.74792483 -7.48464588 6 -12 6 C-12 5.34 -12 4.68 -12 4 C-4.71428571 -0.57142857 -4.71428571 -0.57142857 0 0 Z " fill="#E0EFFB" transform="translate(451,209)"/>
<path d="M0 0 C0.33 0 0.66 0 1 0 C1.4375 2.0625 1.4375 2.0625 1 5 C-1.12080183 7.57260172 -3.50627561 9.79254499 -6 12 C-6.66 11.67 -7.32 11.34 -8 11 C-7.38511719 10.31164062 -7.38511719 10.31164062 -6.7578125 9.609375 C-6.21898437 8.99578125 -5.68015625 8.3821875 -5.125 7.75 C-4.59132813 7.14671875 -4.05765625 6.5434375 -3.5078125 5.921875 C-2.0202513 4.02581254 -0.99677564 2.18709995 0 0 Z " fill="#E3F2FD" transform="translate(946,171)"/>
<path d="M0 0 C0.99 0 1.98 0 3 0 C3.66 3.63 4.32 7.26 5 11 C4.01 11.495 4.01 11.495 3 12 C2.01 8.04 1.02 4.08 0 0 Z " fill="#305183" transform="translate(974,140)"/>
<path d="M0 0 C4.98012761 1.50912958 8.24259942 4.55661849 12 8 C11.67 8.66 11.34 9.32 11 10 C9.16375669 8.52444734 7.3310715 7.04446569 5.5 5.5625 C4.4790625 4.73878906 3.458125 3.91507812 2.40625 3.06640625 C1.6121875 2.38449219 0.818125 1.70257813 0 1 C0 0.67 0 0.34 0 0 Z " fill="#2B4C7C" transform="translate(950,110)"/>
<path d="M0 0 C0.66 0.33 1.32 0.66 2 1 C0.88121617 2.17262904 -0.24523051 3.33795138 -1.375 4.5 C-2.00148438 5.1496875 -2.62796875 5.799375 -3.2734375 6.46875 C-5 8 -5 8 -7 8 C-5.50902342 4.2047869 -3.24299151 2.38957269 0 0 Z " fill="#192A40" transform="translate(965,396)"/>
<path d="M0 0 C0.99 0 1.98 0 3 0 C4.49821059 3.37097383 5 5.20442119 5 9 C4.01 8.67 3.02 8.34 2 8 C2 6.02 2 4.04 2 2 C1.34 2 0.68 2 0 2 C0 1.34 0 0.68 0 0 Z " fill="#3A5C8B" transform="translate(448,146)"/>
<path d="M0 0 C2.97 0.495 2.97 0.495 6 1 C4.02 1.99 4.02 1.99 2 3 C2 4.65 2 6.3 2 8 C1.34 7.67 0.68 7.34 0 7 C0 4.69 0 2.38 0 0 Z " fill="#374657" transform="translate(839,488)"/>
<path d="M0 0 C0.66 0.33 1.32 0.66 2 1 C-0.97 3.64 -3.94 6.28 -7 9 C-7 6 -7 6 -5.46875 4.39453125 C-4.49421875 3.61142578 -4.49421875 3.61142578 -3.5 2.8125 C-2.8503125 2.28269531 -2.200625 1.75289063 -1.53125 1.20703125 C-1.0259375 0.80871094 -0.520625 0.41039062 0 0 Z " fill="#E2EBF1" transform="translate(1309,408)"/>
<path d="M0 0 C-0.33 2.31 -0.66 4.62 -1 7 C-1.66 7 -2.32 7 -3 7 C-3.33 6.01 -3.66 5.02 -4 4 C-4.66 3.34 -5.32 2.68 -6 2 C-2.25 0 -2.25 0 0 0 Z " fill="#263549" transform="translate(458,362)"/>
<path d="M0 0 C0.99 0 1.98 0 3 0 C2.34 1.65 1.68 3.3 1 5 C0.34 5 -0.32 5 -1 5 C-1.33 6.32 -1.66 7.64 -2 9 C-2.66 9 -3.32 9 -4 9 C-2.80100302 5.9168649 -1.52299523 2.93720508 0 0 Z " fill="#1E3148" transform="translate(1116,161)"/>
<path d="M0 0 C1.15957207 3.47871621 0.77456651 4.34219645 -0.4375 7.6875 C-0.86869141 8.89986328 -0.86869141 8.89986328 -1.30859375 10.13671875 C-1.53675781 10.75160156 -1.76492188 11.36648438 -2 12 C-2.66 11.67 -3.32 11.34 -4 11 C-3.52269162 9.5410574 -3.04308958 8.08286504 -2.5625 6.625 C-2.29566406 5.81289063 -2.02882813 5.00078125 -1.75390625 4.1640625 C-1 2 -1 2 0 0 Z " fill="#28384D" transform="translate(1112,413)"/>
<path d="M0 0 C0.66 0.33 1.32 0.66 2 1 C2.36923077 6.53846154 2.36923077 6.53846154 0.5 8.875 C-0.2425 9.431875 -0.2425 9.431875 -1 10 C-1.125 3.375 -1.125 3.375 0 0 Z " fill="#23334A" transform="translate(482,391)"/>
<path d="M0 0 C0.66 0.33 1.32 0.66 2 1 C0.35 4.3 -1.3 7.6 -3 11 C-3.33 11 -3.66 11 -4 11 C-4.56638908 6.18569279 -2.82561627 3.79692186 0 0 Z " fill="#2D3E54" transform="translate(1508,257)"/>
<path d="M0 0 C4.95 0 9.9 0 15 0 C15 0.33 15 0.66 15 1 C14.09636719 1.06058594 13.19273438 1.12117187 12.26171875 1.18359375 C10.49248047 1.30927734 10.49248047 1.30927734 8.6875 1.4375 C7.51574219 1.51871094 6.34398437 1.59992188 5.13671875 1.68359375 C1.97409042 1.8867371 1.97409042 1.8867371 -1 3 C-0.67 2.01 -0.34 1.02 0 0 Z " fill="#DFE9F5" transform="translate(1124,235)"/>
<path d="M0 0 C0 0.66 0 1.32 0 2 C-4.07369424 4.03684712 -6.58937864 4.0257259 -11 3 C-11 2.67 -11 2.34 -11 2 C-3.375 0 -3.375 0 0 0 Z " fill="#3C5C8C" transform="translate(930,217)"/>
<path d="M0 0 C0.99 0.33 1.98 0.66 3 1 C1.25 3.0625 1.25 3.0625 -1 5 C-3.25 4.75 -3.25 4.75 -5 4 C-2.6875 1.9375 -2.6875 1.9375 0 0 Z " fill="#21467F" transform="translate(457,205)"/>
<path d="M0 0 C1.42944945 2.35438733 2.08661261 3.48032433 1.625 6.25 C1.41875 6.8275 1.2125 7.405 1 8 C0.34 7.34 -0.32 6.68 -1 6 C-1.99 6 -2.98 6 -4 6 C-2.68 4.02 -1.36 2.04 0 0 Z " fill="#DBE6F0" transform="translate(1576,132)"/>
<path d="M0 0 C1.43836751 0.11458693 2.87570966 0.24209116 4.3125 0.375 C5.51326172 0.47941406 5.51326172 0.47941406 6.73828125 0.5859375 C9 1 9 1 12 3 C12 3.66 12 4.32 12 5 C11.319375 4.71125 10.63875 4.4225 9.9375 4.125 C6.67106907 2.87402645 3.37153877 1.92552045 0 1 C0 0.67 0 0.34 0 0 Z " fill="#DFE8F0" transform="translate(375,389)"/>
<path d="M0 0 C3.82097239 0.53069061 6.06171403 1.49701566 9 4 C6.36 3.67 3.72 3.34 1 3 C0.67 2.01 0.34 1.02 0 0 Z " fill="#E4EDF5" transform="translate(1787,194)"/>
<path d="M0 0 C0.99 0.33 1.98 0.66 3 1 C3.54372951 4.05847848 4 6.88772805 4 10 C1.16625119 6.79663178 0.4794463 4.21912747 0 0 Z " fill="#273649" transform="translate(741,451)"/>
<path d="M0 0 C0.66 0.33 1.32 0.66 2 1 C0.38405168 3.04119788 -1.2856382 5.04072937 -3 7 C-3.66 7 -4.32 7 -5 7 C-3.70700306 4.11562221 -2.34058637 2.12780579 0 0 Z " fill="#2F3D51" transform="translate(1485,367)"/>
<path d="M0 0 C1.875 0.25 1.875 0.25 4 1 C5.3125 2.875 5.3125 2.875 6 5 C5.67 5.99 5.34 6.98 5 8 C0 2.25 0 2.25 0 0 Z " fill="#335586" transform="translate(962,120)"/>
<path d="M0 0 C3.44165321 0.35299007 5.06872538 1.04581692 8 3 C4.06329512 4.31223496 1.87511856 3.24296256 -2 2 C-1.34 1.34 -0.68 0.68 0 0 Z " fill="#375A8C" transform="translate(926,98)"/>
<path d="M0 0 C0.99 0.33 1.98 0.66 3 1 C0.03 3.475 0.03 3.475 -3 6 C-2.42655063 3.13275314 -2.1385485 2.1385485 0 0 Z " fill="#172940" transform="translate(552,403)"/>
<path d="M0 0 C-0.6875 1.9375 -0.6875 1.9375 -2 4 C-4.625 4.75 -4.625 4.75 -7 5 C-2.25 0 -2.25 0 0 0 Z " fill="#203146" transform="translate(1252,395)"/>
<path d="M0 0 C0.99 0.66 1.98 1.32 3 2 C1.35 3.98 -0.3 5.96 -2 8 C-2.33 7.01 -2.66 6.02 -3 5 C-1.5625 2.3125 -1.5625 2.3125 0 0 Z " fill="#213149" transform="translate(920,391)"/>
<path d="M0 0 C1.98 0 3.96 0 6 0 C5.21625 0.763125 4.4325 1.52625 3.625 2.3125 C0.92742283 4.90891805 0.92742283 4.90891805 -1 8 C-0.67 5.36 -0.34 2.72 0 0 Z " fill="#E5F2F6" transform="translate(1733,192)"/>
<path d="M0 0 C1.423125 0.37125 1.423125 0.37125 2.875 0.75 C3.205 1.41 3.535 2.07 3.875 2.75 C0.575 2.42 -2.725 2.09 -6.125 1.75 C-3.125 -0.25 -3.125 -0.25 0 0 Z " fill="#DBECF7" transform="translate(417.125,121.25)"/>
</svg>
